SplineFontDB: 3.0
FontName: MiriamMonoCLM-BookOblique
FullName: Miriam Mono CLM Book Oblique
FamilyName: Miriam Mono CLM
Weight: Book
Copyright: Copyright 2002-2010 by Maxim Iorsh (iorsh@math.technion.ac.il). Distributed under the terms of GNU General Public License version 2(http://www.gnu.org/licenses/gpl.html).\n\nHebrew vowel marks positioning algorithms implementation by Yoram Gnat 2010 (yoramg@shenkar.ac.il). \n\nLatin glyphs, digits and punctuation Copyright (URW)++,Copyright 1999 by (URW)++ Design & Development.\nAll rights reserved.
Version: 0.120
ItalicAngle: -12
UnderlinePosition: -100
UnderlineWidth: 50
Ascent: 800
Descent: 200
LayerCount: 2
Layer: 0 0 "Back"  1
Layer: 1 0 "Fore"  0
NeedsXUIDChange: 1
UniqueID: 4247518
FSType: 0
OS2Version: 0
OS2_WeightWidthSlopeOnly: 0
OS2_UseTypoMetrics: 0
CreationTime: 1235598109
ModificationTime: 1289934417
PfmFamily: 49
TTFWeight: 400
TTFWidth: 5
LineGap: 90
VLineGap: 0
OS2TypoAscent: 0
OS2TypoAOffset: 1
OS2TypoDescent: 0
OS2TypoDOffset: 1
OS2TypoLinegap: 90
OS2WinAscent: 0
OS2WinAOffset: 1
OS2WinDescent: 0
OS2WinDOffset: 1
HheadAscent: 0
HheadAOffset: 1
HheadDescent: 0
HheadDOffset: 1
OS2Vendor: 'PfEd'
Lookup: 4 1 0 "'ccmp' Yod Hiriq in Hebrew Script"  {"'ccmp' Yod Hiriq in Hebrew Script"  } ['ccmp' ('hebr' <'dflt' > ) ]
Lookup: 4 1 0 "'ccmp' Shin dots Compositions"  {"'ccmp' Shin dots Compositions"  } ['ccmp' ('hebr' <'dflt' > ) ]
Lookup: 4 1 0 "'ccmp' Hebrew Standard Substitutions"  {"'ccmp' Rafe above Bet Kaf Pe"  "'ccmp' Shin and Sin dots"  "'ccmp' Vav and Holam"  "'ccmp' Dagesh"  "'ccmp' Alef-a"  } ['ccmp' ('hebr' <'dflt' > ) ]
Lookup: 4 1 0 "'ccmp' Hebrew Additional Substitutions"  {"'ccmp' Dagesh in additional letters"  "'ccmp' Final Kaf"  "'ccmp' Yod Ligatures"  "'ccmp' Alef Lamed"  } ['ccmp' ('hebr' <'dflt' > ) ]
Lookup: 6 1 0 "'ccmp' Hebrew Special Decompositions"  {"'ccmp' Final Kaf Decomposition"  "'ccmp' Alef Decompositions"  "'ccmp' Virtual YodHiriq Decompositions"  } ['ccmp' ('hebr' <'dflt' > ) ]

StartChar: .notdef
Encoding: 65536 -1 0
Width: 600
HStem: -60 41<117 475> 74 60<271.09 349.915> 191 57<330 347.068> 344 57<274 292.029> 405 25<317.548 424.65> 499 41<227 585>
VStem: 268 86<78.6191 129.99> 268 23<344.837 385> 449 26<312.189 382.981>
LayerCount: 2
Fore
SplineSet
351 232 m 1xfd80
 346 207 l 2
 344 196 339 191 331 191 c 0
 322 191 319 196 321 207 c 2
 330 248 l 1
 406 277 441 303 449 337 c 0
 450 341 449 346 449 350 c 0
 449 383 421 405 377 405 c 0
 350 405 330 400 296 385 c 1
 291 360 l 2
 288 349 282 344 275 344 c 0
 266 344 265 349 268 360 c 2
 274 401 l 1
 280 403 288 406 293 408 c 0
 334 425 354 430 385 430 c 0
 441 430 475 401 475 356 c 0
 475 350 474 344 473 337 c 0
 463 293 434 267 351 232 c 1xfd80
309 134 m 2
 325 134 l 2
 342 134 354 125 354 111 c 0
 354 109 354 106 353 104 c 0
 349 87 333 74 313 74 c 2
 297 74 l 2
 279 74 268 83 268 97 c 0
 268 99 267 102 268 104 c 0xfe80
 272 122 288 134 309 134 c 2
117 -19 m 1
 475 -19 l 1
 585 499 l 1
 227 499 l 1
 117 -19 l 1
195 540 m 1
 635 540 l 1
 507 -60 l 1
 67 -60 l 1
 195 540 l 1
EndSplineSet
Validated: 1
EndChar

StartChar: exclam
Encoding: 33 33 2
Width: 600
Flags: W
HStem: -15 100<262.49 351.417> 598 20G<416.5 440>
VStem: 246 122<1.98056 67.9058> 328 42<209.601 262.932> 380 83<519.115 609.315>
LayerCount: 2
Fore
SplineSet
458 563 m 2xd8
 370 237 l 2
 365 217 357 209 343 209 c 0
 335 209 328 216 328 224 c 0
 328 228 327 231 328 237 c 2
 380 563 l 2
 386 601 402 618 431 618 c 0
 449 618 463 606 463 589 c 0
 463 584 461 575 458 563 c 2xd8
311 85 m 2
 323 85 l 2
 350 85 368 69 368 45 c 0
 368 13 337 -15 302 -15 c 2
 290 -15 l 2
 264 -15 246 1 246 24 c 0xe8
 246 57 277 85 311 85 c 2
EndSplineSet
Validated: 1
EndChar

StartChar: quotedbl
Encoding: 34 34 3
Width: 600
Flags: W
HStem: 315 289<274 308.754 454 488.642>
VStem: 254 328
LayerCount: 2
Fore
SplineSet
274 604 m 1
 402 604 l 1
 315 351 l 2
 306 326 295 315 277 315 c 0
 263 315 254 325 254 341 c 2
 254 351 l 1
 274 604 l 1
454 604 m 1
 582 604 l 1
 495 351 l 2
 486 326 474 315 457 315 c 0
 443 315 434 325 434 341 c 2
 434 351 l 1
 454 604 l 1
EndSplineSet
Validated: 1
EndChar

StartChar: numbersign
Encoding: 35 35 4
Width: 600
Flags: W
HStem: 189 41<137.425 247 299 378 430 533.541> 356 41<192.427 294 346 425 477 588.542>
LayerCount: 2
Fore
SplineSet
466 356 m 1
 430 230 l 1
 510 230 l 2
 527 230 534 225 534 214 c 0
 534 199 521 189 501 189 c 2
 419 189 l 1
 355 -36 l 2
 350 -54 342 -62 329 -62 c 0
 320 -62 313 -55 313 -46 c 0
 313 -43 314 -39 315 -33 c 2
 378 189 l 1
 287 189 l 1
 224 -36 l 2
 219 -54 210 -62 197 -62 c 0
 188 -62 181 -55 181 -46 c 0
 181 -43 181 -43 184 -33 c 2
 247 189 l 1
 160 189 l 2
 144 189 137 194 137 205 c 0
 137 221 149 230 169 230 c 2
 258 230 l 1
 294 356 l 1
 216 356 l 2
 199 356 192 361 192 372 c 0
 192 388 204 397 225 397 c 2
 305 397 l 1
 369 622 l 2
 374 639 382 647 395 647 c 0
 404 647 411 640 411 632 c 0
 411 629 410 623 409 619 c 2
 346 397 l 1
 437 397 l 1
 500 622 l 2
 505 639 514 647 526 647 c 0
 536 647 543 640 543 632 c 0
 543 629 543 629 540 619 c 2
 477 397 l 1
 566 397 l 2
 583 397 589 392 589 381 c 0
 589 366 577 356 557 356 c 2
 466 356 l 1
425 356 m 1
 334 356 l 1
 299 230 l 1
 390 230 l 1
 425 356 l 1
EndSplineSet
Validated: 1
EndChar

StartChar: dollar
Encoding: 36 36 5
Width: 600
Flags: W
HStem: 54 38<234.619 292 333 404.51> 539 116<377 443.619> 539 37<346.029 403 444 490.264> 543 20G<559.5 570.5>
VStem: 131 61<127.477 181.9> 149 43<140.278 198.213> 225 41<375.27 471.321> 266 41<-91.405 -32.9615> 414 42<597.667 654.466> 492 42<162.898 266.602> 527 40<448.725 508.254> 539 43<534 562.271>
LayerCount: 2
Fore
SplineSet
403 576 m 1xaac0
 414 628 l 2
 418 646 426 655 440 655 c 0xcac0
 449 655 456 648 456 639 c 2
 456 628 l 1
 444 576 l 1xaac0
 487 576 508 562 539 534 c 1
 544 553 553 563 566 563 c 0
 575 563 582 556 582 548 c 0x9ad0
 582 545 582 543 580 536 c 2
 567 476 l 2
 564 458 554 448 542 448 c 0
 535 448 532 452 527 461 c 1
 527 485 l 2x90a0
 527 490 506 511 492 520 c 1
 474 530 439 539 414 539 c 0
 340 539 266 477 266 417 c 0xc2c0
 266 400 277 381 291 371 c 0
 308 360 327 354 385 342 c 1
 454 329 480 320 502 301 c 1
 521 286 534 257 534 232 c 0
 534 140 450 66 333 54 c 1
 307 -65 l 2
 303 -83 295 -92 281 -92 c 0
 272 -92 266 -85 266 -76 c 2
 266 -65 l 1
 292 54 l 1
 246 54 197 79 177 108 c 1
 173 92 l 2
 169 74 163 65 149 65 c 0xc5c0
 141 65 131 72 131 80 c 0
 131 82 130 88 131 92 c 2xc880
 149 171 l 2
 153 188 163 199 176 199 c 0
 181 199 187 195 192 187 c 1xc480
 192 155 l 2
 192 151 216 123 229 114 c 0
 247 101 287 92 320 92 c 0
 412 92 492 151 492 220 c 0
 492 239 481 260 466 271 c 0
 448 285 433 289 366 303 c 0
 304 315 277 325 256 341 c 1
 238 356 225 383 225 409 c 0
 225 489 305 565 403 576 c 1xaac0
EndSplineSet
Validated: 1
EndChar

StartChar: percent
Encoding: 37 37 6
Width: 600
Flags: W
HStem: -12 38<319.033 422.822> 198 38<347.748 452.406> 363 38<275.015 378.822> 573 38<303.685 408.258>
VStem: 216 39<420.317 524.526> 260 39<45.1191 149.341> 428 39<449.254 554.085> 472 39<74.3758 178.242>
LayerCount: 2
Fore
SplineSet
412 236 m 0
 470 236 511 196 511 137 c 0
 511 61 437 -12 358 -12 c 0
 302 -12 260 30 260 86 c 0
 260 163 334 236 412 236 c 0
403 198 m 0
 350 198 299 147 299 94 c 0
 299 55 327 26 366 26 c 0
 421 26 472 76 472 131 c 0
 472 170 444 198 403 198 c 0
367 611 m 0
 426 611 467 570 467 512 c 0
 467 436 393 363 314 363 c 0
 257 363 216 405 216 462 c 0
 216 538 290 611 367 611 c 0
360 573 m 0
 306 573 255 522 255 469 c 0
 255 430 284 401 322 401 c 0
 377 401 428 451 428 505 c 0
 428 545 400 573 360 573 c 0
569 344 m 2
 163 222 l 2
 159 220 154 220 151 220 c 0
 143 220 137 227 137 235 c 0
 137 245 145 253 159 258 c 2
 565 380 l 2
 570 381 573 382 578 382 c 0
 585 382 591 375 591 367 c 0
 591 356 584 348 569 344 c 2
EndSplineSet
Validated: 1
EndChar

StartChar: ampersand
Encoding: 38 38 7
Width: 600
Flags: W
HStem: -16 41<204.993 313.722> 0 41<422 482.543> 208 43<473.164 526.778> 251 36<242.721 277> 478 41<334.607 442.159>
VStem: 132 42<55.2035 184.802> 249 41<307.483 434.098> 461 66<208.936 250.982>
LayerCount: 2
Fore
SplineSet
393 0 m 1x4f
 372 48 l 1
 334 5 295 -16 249 -16 c 0
 183 -16 132 37 132 108 c 0
 132 189 192 263 277 287 c 1
 253 348 249 359 249 379 c 0
 249 449 324 519 399 519 c 0
 422 519 442 513 461 499 c 1
 472 505 l 2
 479 508 486 510 490 510 c 0
 498 510 505 502 505 494 c 0
 505 483 499 476 483 468 c 2
 448 452 l 1
 431 470 414 478 391 478 c 0
 341 478 290 429 290 381 c 0
 290 364 297 339 314 298 c 2
 388 121 l 1
 417 159 440 202 461 251 c 1x9f
 504 251 l 2
 521 251 527 245 527 233 c 0
 527 217 515 208 495 208 c 2
 483 208 l 1
 457 154 429 110 403 82 c 1
 422 41 l 1
 461 41 l 2x6f
 477 41 483 37 483 25 c 0x8f
 483 10 470 0 451 0 c 2
 393 0 l 1x4f
357 86 m 1
 287 251 l 1
 222 237 174 180 174 116 c 0
 174 65 209 25 255 25 c 0
 290 25 326 47 357 86 c 1
EndSplineSet
Validated: 1
EndChar

StartChar: quotesingle
Encoding: 39 39 8
Width: 600
Flags: W
HStem: 314 290
VStem: 207 261
LayerCount: 2
Fore
SplineSet
335 604 m 1
 468 604 l 1
 267 339 l 2
 252 320 244 314 230 314 c 0
 217 314 207 324 207 337 c 0
 207 342 209 348 212 354 c 2
 335 604 l 1
EndSplineSet
Validated: 1
EndChar

StartChar: parenleft
Encoding: 40 40 9
Width: 600
Flags: W
HStem: 584 20G<559.5 571>
VStem: 335 59<-5.98767 276.841> 398 39<-123.003 -74.95>
LayerCount: 2
Fore
SplineSet
566 604 m 0
 576 604 583 597 583 588 c 0
 583 581 583 581 572 567 c 0
 449 406 394 270 394 124 c 0
 394 56 406 -9 435 -93 c 0
 436 -96 437 -99 437 -101 c 0
 437 -112 424 -124 411 -124 c 0
 406 -124 401 -121 398 -115 c 0
 383 -90 370 -54 354 4 c 0
 340 54 335 89 335 138 c 0
 335 268 381 383 493 530 c 0
 536 586 553 604 566 604 c 0
EndSplineSet
Validated: 1
EndChar

StartChar: parenright
Encoding: 41 41 10
Width: 600
Flags: W
HStem: 584 20G<289.5 298.5>
VStem: 313 59<205.37 488.379>
LayerCount: 2
Fore
SplineSet
296 604 m 0
 301 604 306 601 309 595 c 0
 345 533 372 422 372 342 c 0
 372 212 326 97 214 -50 c 0
 172 -106 154 -124 141 -124 c 0
 131 -124 124 -117 124 -108 c 0
 124 -103 125 -99 130 -93 c 0
 256 69 313 208 313 356 c 0
 313 424 301 489 272 573 c 0
 271 576 270 579 270 581 c 0
 270 592 283 604 296 604 c 0
EndSplineSet
Validated: 1
EndChar

StartChar: asterisk
Encoding: 42 42 11
Width: 600
Flags: W
HStem: 442 41<211.541 227 536.167 585.406> 584 20G<421 432.5>
LayerCount: 2
Fore
SplineSet
372 438 m 1
 402 577 l 2
 406 595 414 604 428 604 c 0
 437 604 444 597 444 589 c 2
 443 577 l 1
 413 438 l 1
 556 481 l 2
 561 483 568 484 571 484 c 0
 579 484 586 476 586 468 c 0
 586 455 578 448 560 442 c 2
 417 400 l 1
 475 288 l 2
 477 284 479 276 479 273 c 0
 479 262 466 250 454 250 c 0
 446 250 443 253 437 264 c 2
 379 376 l 1
 274 264 l 2
 264 254 258 250 251 250 c 0
 241 250 234 257 234 266 c 0
 234 274 236 276 246 288 c 2
 351 400 l 1
 227 442 l 1
 224 442 l 1
 217 443 211 451 211 458 c 0
 211 471 223 483 236 483 c 0
 240 483 241 483 249 480 c 2
 372 438 l 1
EndSplineSet
Validated: 1
EndChar

StartChar: plus
Encoding: 43 43 12
Width: 600
Flags: W
HStem: 261 41<131.424 334 384 587.543>
LayerCount: 2
Fore
SplineSet
375 261 m 1
 332 59 l 2
 328 41 320 32 306 32 c 0
 297 32 290 39 290 47 c 2
 291 59 l 1
 334 261 l 1
 154 261 l 2
 138 261 131 266 131 277 c 0
 131 292 143 302 162 302 c 2
 343 302 l 1
 386 503 l 2
 389 521 398 530 412 530 c 0
 421 530 428 523 428 514 c 2
 427 503 l 1
 384 302 l 1
 564 302 l 2
 581 302 588 298 588 286 c 0
 588 271 575 261 556 261 c 2
 375 261 l 1
EndSplineSet
Validated: 1
EndChar

StartChar: comma
Encoding: 44 44 13
Width: 600
Flags: W
HStem: -145 290
VStem: 110 261
LayerCount: 2
Fore
SplineSet
238 145 m 1
 371 145 l 1
 170 -120 l 2
 155 -139 147 -145 133 -145 c 0
 120 -145 110 -135 110 -122 c 0
 110 -117 112 -111 115 -105 c 2
 238 145 l 1
EndSplineSet
Validated: 1
EndChar

StartChar: hyphen
Encoding: 45 45 14
Width: 600
Flags: W
HStem: 258 41<131.425 587.575>
LayerCount: 2
Fore
SplineSet
556 258 m 2
 154 258 l 2
 138 258 131 263 131 274 c 0
 131 290 143 299 163 299 c 2
 565 299 l 2
 581 299 588 294 588 283 c 0
 588 268 576 258 556 258 c 2
EndSplineSet
Validated: 1
EndChar

StartChar: period
Encoding: 46 46 15
Width: 600
Flags: W
HStem: -15 131<263.47 357.53>
VStem: 235 151<12.9633 88.0367>
LayerCount: 2
Fore
SplineSet
319 116 m 2
 330 116 l 2
 363 116 386 95 386 64 c 0
 386 22 346 -15 302 -15 c 2
 291 -15 l 2
 258 -15 235 6 235 37 c 0
 235 79 275 116 319 116 c 2
EndSplineSet
Validated: 1
EndChar

StartChar: slash
Encoding: 47 47 16
Width: 600
Flags: W
LayerCount: 2
Fore
SplineSet
617 633 m 2
 141 -63 l 2
 131 -77 125 -81 115 -81 c 0
 107 -81 99 -74 99 -65 c 0
 99 -60 101 -55 107 -46 c 2
 583 650 l 2
 592 664 599 668 608 668 c 0
 618 668 625 661 625 652 c 0
 625 647 623 643 617 633 c 2
EndSplineSet
Validated: 1
EndChar

StartChar: zero
Encoding: 48 48 17
Width: 600
Flags: W
HStem: -15 41<243.816 374.306> 577 41<350.536 483.423>
VStem: 156 44<71.4567 307.156> 527 44<294.648 531.543>
LayerCount: 2
Fore
SplineSet
561 351 m 2
 540 251 l 1
 506 94 408 -15 298 -15 c 0
 208 -15 156 50 156 162 c 0
 156 191 159 221 166 251 c 2
 187 351 l 2
 220 509 320 618 430 618 c 0
 519 618 571 553 571 441 c 0
 571 412 568 382 561 351 c 2
227 346 m 2
 208 257 l 2
 203 233 200 206 200 178 c 0
 200 77 235 26 305 26 c 0
 346 26 385 44 414 79 c 1
 453 124 486 193 500 257 c 2
 519 346 l 2
 524 370 527 398 527 425 c 0
 527 526 492 577 422 577 c 0
 380 577 342 559 313 524 c 1
 273 478 240 410 227 346 c 2
EndSplineSet
Validated: 1
EndChar

StartChar: one
Encoding: 49 49 18
Width: 600
Flags: W
HStem: 0 41<117.425 289 330 491.541> 592 20G<383.069 446.762>
LayerCount: 2
Fore
SplineSet
451 612 m 1
 330 41 l 1
 469 41 l 2
 486 41 492 37 492 25 c 0
 492 10 480 0 461 0 c 2
 141 0 l 2
 124 0 117 5 117 16 c 0
 117 32 129 41 149 41 c 2
 289 41 l 1
 398 557 l 1
 258 515 l 2
 247 512 246 512 243 512 c 0
 235 512 228 520 228 528 c 0
 228 541 236 548 254 554 c 2
 451 612 l 1
EndSplineSet
Validated: 1
EndChar

StartChar: two
Encoding: 50 50 19
Width: 600
Flags: W
HStem: 0 41<132 446> 577 41<331.225 481.21>
VStem: 530 42<403.329 529.839>
LayerCount: 2
Fore
SplineSet
132 41 m 1
 446 41 l 1
 453 77 l 2
 457 95 466 104 480 104 c 0
 489 104 496 97 496 89 c 0
 496 86 496 85 494 77 c 2
 478 0 l 1
 84 0 l 1
 97 60 l 1
 380 282 l 1
 507 385 530 414 530 471 c 0
 530 529 478 577 414 577 c 0
 344 577 273 533 244 472 c 0
 237 458 230 452 219 452 c 0
 211 452 203 459 203 466 c 0
 203 481 225 516 250 542 c 0
 299 591 360 618 424 618 c 0
 505 618 572 555 572 479 c 0
 572 427 552 388 496 334 c 0
 450 290 239 122 133 44 c 1
 132 41 l 1
EndSplineSet
Validated: 1
EndChar

StartChar: three
Encoding: 51 51 20
Width: 600
Flags: W
HStem: -15 41<201.228 385.055> 312 41<332.323 430.08> 577 41<328.376 496.803>
VStem: 496 41<127.349 252.093> 537 42<420.43 540.263>
LayerCount: 2
Fore
SplineSet
444 328 m 1xe8
 505 301 537 254 537 197 c 0
 537 89 415 -15 287 -15 c 0
 238 -15 194 -2 148 26 c 0
 122 41 110 53 110 64 c 0
 110 76 122 88 133 88 c 0
 139 88 143 86 149 81 c 0
 190 44 240 26 297 26 c 0
 400 26 496 107 496 193 c 0xf0
 496 259 429 312 347 312 c 0
 347 312 346 312 345 312 c 0
 329 312 322 317 322 328 c 0
 322 335 326 342 332 347 c 0
 339 353 339 353 380 353 c 0
 466 353 537 413 537 485 c 0
 537 539 491 577 424 577 c 0
 367 577 315 558 277 523 c 0
 264 511 261 509 253 509 c 0
 244 509 237 515 237 525 c 0
 237 534 246 547 267 563 c 0
 313 599 374 618 433 618 c 0
 520 618 579 567 579 493 c 0
 579 422 528 361 444 328 c 1xe8
EndSplineSet
Validated: 1
EndChar

StartChar: four
Encoding: 52 52 21
Width: 600
Flags: W
HStem: 0 41<277.425 385 425 482.543> 169 41<189 412 461 517.576> 563 41<472 495>
LayerCount: 2
Fore
SplineSet
412 169 m 1
 141 169 l 1
 151 216 l 1
 461 604 l 1
 545 604 l 1
 461 210 l 1
 495 210 l 2
 512 210 518 206 518 194 c 0
 518 178 506 169 487 169 c 2
 453 169 l 1
 425 41 l 1
 459 41 l 2
 476 41 483 36 483 25 c 0
 483 10 470 0 451 0 c 2
 300 0 l 2
 284 0 277 5 277 16 c 0
 277 32 289 41 309 41 c 2
 385 41 l 1
 412 169 l 1
420 210 m 1
 495 563 l 1
 472 563 l 1
 189 210 l 1
 420 210 l 1
EndSplineSet
Validated: 1
EndChar

StartChar: five
Encoding: 53 53 22
Width: 600
Flags: W
HStem: -15 41<212.675 384.681> 354 41<295.594 463.429> 563 41<310 583.575>
VStem: 506 42<154.33 310.931>
LayerCount: 2
Fore
SplineSet
310 563 m 1
 268 365 l 1
 324 386 363 395 405 395 c 0
 491 395 548 338 548 250 c 0
 548 108 429 -15 292 -15 c 0
 245 -15 202 -2 165 23 c 0
 133 45 113 65 113 78 c 0
 113 90 125 102 138 102 c 0
 143 102 147 100 153 93 c 0
 192 49 242 26 299 26 c 0
 367 26 427 59 466 118 c 0
 491 157 506 202 506 242 c 0
 506 311 462 354 392 354 c 0
 352 354 305 342 259 321 c 0
 246 315 241 313 235 313 c 0
 227 313 221 319 220 328 c 0
 220 330 220 333 221 335 c 2
 278 604 l 1
 560 604 l 2
 577 604 584 599 584 588 c 0
 584 572 572 563 552 563 c 2
 310 563 l 1
EndSplineSet
Validated: 1
EndChar

StartChar: six
Encoding: 54 54 23
Width: 600
Flags: W
HStem: -15 41<275.097 411.149> 323 41<340.822 469.819> 577 41<454.921 617.161>
VStem: 184 38<94.0663 211.795> 510 42<131.048 281.017>
LayerCount: 2
Fore
SplineSet
228 242 m 1
 287 324 349 364 420 364 c 0
 497 364 552 304 552 219 c 0
 552 99 445 -15 333 -15 c 0
 242 -15 184 60 184 179 c 0
 184 308 235 434 319 513 c 0
 390 580 478 618 560 618 c 0
 598 618 631 604 631 587 c 0
 631 575 620 563 608 563 c 0
 603 563 599 564 591 569 c 0
 582 574 565 577 546 577 c 0
 458 577 349 510 290 420 c 0
 257 369 239 318 228 242 c 1
222 188 m 1
 224 148 225 145 230 123 c 0
 246 58 283 26 343 26 c 0
 429 26 510 116 510 212 c 0
 510 275 468 323 412 323 c 0
 373 323 329 303 289 266 c 0
 271 250 256 232 222 188 c 1
EndSplineSet
Validated: 1
EndChar

StartChar: seven
Encoding: 55 55 24
Width: 600
Flags: W
HStem: 0 21G<289.5 299.5> 563 41<265 557>
LayerCount: 2
Fore
SplineSet
553 545 m 1
 557 563 l 1
 265 563 l 1
 258 528 l 2
 254 509 245 500 231 500 c 0
 223 500 215 507 215 515 c 0
 215 518 216 523 217 528 c 2
 233 604 l 1
 606 604 l 1
 592 539 l 1
 319 20 l 2
 311 4 305 0 294 0 c 0
 285 0 278 6 278 14 c 0
 278 19 280 24 284 32 c 2
 553 545 l 1
EndSplineSet
Validated: 1
EndChar

StartChar: eight
Encoding: 56 56 25
Width: 600
Flags: W
HStem: -15 41<234.23 385.971> 293 40<302.168 435.956> 577 41<347.021 491.987>
VStem: 143 42<71.5137 204.807> 216 41<372.491 492.388> 482 42<115.093 249.709> 534 42<407.511 537.093>
LayerCount: 2
Fore
SplineSet
441 313 m 1
 496 285 524 244 524 192 c 0
 524 87 412 -15 296 -15 c 0
 207 -15 143 45 143 128 c 0
 143 206 197 274 291 313 c 1
 237 344 216 376 216 424 c 0
 216 522 323 618 432 618 c 0
 515 618 576 561 576 483 c 0
 576 436 552 388 510 353 c 0
 491 338 475 328 441 313 c 1
422 577 m 0
 338 577 257 504 257 429 c 0
 257 374 305 333 370 333 c 0
 457 333 534 399 534 473 c 0
 534 535 489 577 422 577 c 0
361 293 m 0
 268 293 185 219 185 135 c 0
 185 71 235 26 305 26 c 0
 396 26 482 103 482 184 c 0
 482 250 434 293 361 293 c 0
EndSplineSet
Validated: 1
EndChar

StartChar: nine
Encoding: 57 57 26
Width: 600
Flags: W
HStem: -15 41<155.839 318.079> 239 41<303.181 432.317> 577 41<361.851 497.903>
VStem: 221 42<321.983 471.952>
LayerCount: 2
Fore
SplineSet
545 361 m 1
 487 279 424 239 353 239 c 0
 276 239 221 299 221 384 c 0
 221 504 328 618 440 618 c 0
 531 618 589 543 589 424 c 0
 589 295 538 169 454 90 c 0
 383 23 295 -15 213 -15 c 0
 175 -15 142 -1 142 16 c 0
 142 28 153 40 165 40 c 0
 170 40 174 39 182 34 c 0
 191 29 208 26 227 26 c 0
 315 26 424 93 483 183 c 0
 510 225 532 282 541 334 c 0
 542 340 542 340 545 361 c 1
551 417 m 1
 549 456 548 459 543 480 c 0
 527 545 490 577 430 577 c 0
 344 577 263 487 263 391 c 0
 263 328 305 280 361 280 c 0
 400 280 444 300 484 337 c 0
 502 353 517 373 551 417 c 1
EndSplineSet
Validated: 1
EndChar

StartChar: colon
Encoding: 58 58 27
Width: 600
Flags: W
HStem: -15 131<263.47 357.53> 285 132<327.47 421.53>
VStem: 235 151<13.4615 87.9098> 299 151<313.533 388.467>
LayerCount: 2
Fore
SplineSet
319 116 m 2xe0
 330 116 l 2
 363 116 386 95 386 65 c 0
 386 22 346 -15 302 -15 c 2
 291 -15 l 2
 258 -15 235 6 235 37 c 0
 235 79 275 116 319 116 c 2xe0
383 417 m 2
 394 417 l 2
 427 417 450 396 450 365 c 0
 450 323 410 285 366 285 c 2
 355 285 l 2
 322 285 299 306 299 337 c 0xd0
 299 379 339 417 383 417 c 2
EndSplineSet
Validated: 1
EndChar

StartChar: semicolon
Encoding: 59 59 28
Width: 600
Flags: W
HStem: 285 132<303.47 397.53>
VStem: 275 151<313.533 388.467>
LayerCount: 2
Fore
SplineSet
242 145 m 1
 375 145 l 1
 174 -120 l 2
 159 -139 151 -145 138 -145 c 0
 124 -145 114 -135 114 -122 c 0
 114 -117 116 -111 119 -105 c 2
 242 145 l 1
359 417 m 2
 370 417 l 2
 403 417 426 396 426 365 c 0
 426 323 386 285 342 285 c 2
 331 285 l 2
 298 285 275 306 275 337 c 0
 275 379 315 417 359 417 c 2
EndSplineSet
Validated: 1
EndChar

StartChar: less
Encoding: 60 60 29
Width: 600
Flags: W
LayerCount: 2
Fore
SplineSet
131 281 m 1
 598 513 l 2
 604 516 609 518 611 518 c 0
 618 518 623 514 625 508 c 2
 626 505 l 2
 627 503 627 502 627 499 c 0
 627 491 621 484 610 478 c 2
 213 281 l 1
 526 84 l 2
 533 79 535 76 535 70 c 0
 535 66 533 61 530 57 c 2
 528 54 l 2
 524 48 516 44 511 44 c 0
 508 44 503 46 498 49 c 2
 131 281 l 1
EndSplineSet
Validated: 1
EndChar

StartChar: equal
Encoding: 61 61 30
Width: 600
Flags: W
HStem: 190 41<95.4254 593.575> 334 41<126.425 624.575>
LayerCount: 2
Fore
SplineSet
593 334 m 2
 149 334 l 2
 133 334 126 339 126 350 c 0
 126 366 138 375 158 375 c 2
 602 375 l 2
 618 375 625 370 625 359 c 0
 625 344 613 334 593 334 c 2
562 190 m 2
 118 190 l 2
 102 190 95 195 95 206 c 0
 95 222 107 231 127 231 c 2
 571 231 l 2
 587 231 594 226 594 215 c 0
 594 200 582 190 562 190 c 2
EndSplineSet
Validated: 1
EndChar

StartChar: greater
Encoding: 62 62 31
Width: 600
Flags: W
LayerCount: 2
Fore
SplineSet
588 281 m 1
 121 49 l 2
 115 46 110 44 108 44 c 0
 101 44 96 48 94 54 c 2
 93 57 l 2
 92 59 92 61 92 63 c 0
 92 71 98 78 109 84 c 2
 506 281 l 1
 193 478 l 2
 186 483 184 486 184 492 c 0
 184 496 186 502 189 505 c 2
 191 508 l 2
 196 514 203 518 208 518 c 0
 211 518 216 516 221 513 c 2
 588 281 l 1
EndSplineSet
Validated: 1
EndChar

StartChar: question
Encoding: 63 63 32
Width: 600
Flags: W
HStem: -15 100<253.769 363.727> 536 41<320.618 498.221>
VStem: 237 143<1.61763 68.2687> 539 42<381.961 498.491>
LayerCount: 2
Fore
SplineSet
375 247 m 1
 366 206 l 2
 363 188 354 179 340 179 c 0
 331 179 324 186 324 194 c 2
 325 206 l 1
 340 274 l 1
 482 328 539 377 539 444 c 0
 539 500 492 536 419 536 c 0
 374 536 340 528 282 502 c 1
 274 461 l 2
 270 443 261 434 248 434 c 0
 238 434 231 441 231 450 c 0
 231 452 232 456 233 461 c 2
 247 529 l 1
 259 533 264 535 279 541 c 0
 348 569 381 577 433 577 c 0
 525 577 581 531 581 455 c 0
 581 406 556 356 515 323 c 1
 481 297 444 277 375 247 c 1
305 85 m 2
 333 85 l 2
 363 85 380 70 380 45 c 0
 380 12 349 -15 312 -15 c 2
 284 -15 l 2
 255 -15 237 0 237 24 c 0
 237 58 268 85 305 85 c 2
EndSplineSet
Validated: 1
EndChar

StartChar: at
Encoding: 64 64 33
Width: 600
Flags: W
HStem: -62 41<229.532 393.945> 147 41<359.64 459> 376 41<412.218 498> 583 41<355.224 487.854>
VStem: 139 42<34.1854 257.289> 297 42<207.349 312.613> 519 42<418.719 553.079>
LayerCount: 2
Fore
SplineSet
449 147 m 1
 450 150 l 1
 430 148 419 147 408 147 c 0
 343 147 297 187 297 245 c 0
 297 316 356 384 438 408 c 0
 461 414 477 417 506 417 c 1
 516 463 l 2
 518 472 519 480 519 490 c 0
 519 547 483 583 425 583 c 0
 334 583 250 490 222 358 c 2
 188 198 l 2
 184 176 181 152 181 131 c 0
 181 82 195 35 218 9 c 0
 236 -11 264 -21 301 -21 c 0
 344 -21 388 -9 412 9 c 0
 425 19 427 20 434 20 c 0
 443 20 450 13 450 5 c 0
 450 -27 364 -62 286 -62 c 0
 238 -62 202 -46 178 -13 c 0
 154 20 139 70 139 121 c 0
 139 146 142 172 147 198 c 2
 182 361 l 2
 214 513 320 624 433 624 c 0
 510 624 561 574 561 499 c 0
 561 487 560 475 557 463 c 2
 498 186 l 1
 509 184 514 180 514 170 c 0
 514 154 502 147 482 147 c 2
 449 147 l 1
459 192 m 1
 498 376 l 1
 410 376 339 322 339 255 c 0
 339 214 371 188 420 188 c 0
 432 188 446 189 459 192 c 1
EndSplineSet
Validated: 1
EndChar

StartChar: A
Encoding: 65 65 34
Width: 600
Flags: W
HStem: 0 41<13.3131 76 117 218.541 385.425 493 536 595.542> 188 41<227 462> 522 41<214.425 357 397 412>
LayerCount: 2
Fore
SplineSet
468 188 m 1
 203 188 l 1
 117 41 l 1
 196 41 l 2
 213 41 219 37 219 25 c 0
 219 10 206 0 187 0 c 2
 36 0 l 2
 20 0 13 5 13 17 c 0
 13 32 25 41 45 41 c 2
 76 41 l 1
 357 522 l 1
 237 522 l 2
 221 522 214 527 214 538 c 0
 214 554 226 563 246 563 c 2
 449 563 l 1
 536 41 l 1
 573 41 l 2
 590 41 596 37 596 25 c 0
 596 10 584 0 564 0 c 2
 408 0 l 2
 392 0 385 5 385 16 c 0
 385 32 397 41 417 41 c 2
 493 41 l 1
 468 188 l 1
462 229 m 1
 412 522 l 1
 397 522 l 1
 227 229 l 1
 462 229 l 1
EndSplineSet
Validated: 1
EndChar

StartChar: B
Encoding: 66 66 35
Width: 600
Flags: W
HStem: 0 41<47.3131 133 174 459.782> 272 41<232 471.12> 522 41<158.313 235 276 512.622>
VStem: 535 42<112.972 226.379> 549 42<378.119 487.766>
LayerCount: 2
Fore
SplineSet
133 41 m 1xf0
 235 522 l 1
 181 522 l 2
 165 522 158 527 158 539 c 0
 158 554 170 563 190 563 c 2
 448 563 l 2
 533 563 591 515 591 445 c 0xe8
 591 383 554 335 477 298 c 1
 544 273 577 234 577 181 c 0
 577 88 479 0 377 0 c 2
 70 0 l 2
 54 0 47 5 47 17 c 0
 47 32 59 41 79 41 c 2
 133 41 l 1xf0
232 313 m 1
 379 313 l 2
 474 313 549 368 549 437 c 0
 549 457 538 480 521 496 c 0
 501 514 476 522 440 522 c 2
 276 522 l 1
 232 313 l 1
174 41 m 1
 382 41 l 2
 463 41 535 104 535 175 c 0xf0
 535 201 518 229 493 246 c 0
 465 265 433 272 372 272 c 2
 223 272 l 1
 174 41 l 1
EndSplineSet
Validated: 1
EndChar

StartChar: C
Encoding: 67 67 36
Width: 600
Flags: W
HStem: -16 41<246.156 420.183> 536 40<332.83 505.434> 543 20G<611.5 623>
VStem: 110 42<116.791 319.403> 566 43<396.465 446>
LayerCount: 2
Fore
SplineSet
586 507 m 1xd8
 592 536 l 2xd8
 596 554 605 563 618 563 c 0xb8
 628 563 635 557 635 548 c 0
 635 546 634 541 633 536 c 2
 609 424 l 2
 606 406 596 396 583 396 c 0
 577 396 572 399 566 408 c 1
 570 446 l 2
 570 449 546 486 538 494 c 0
 515 518 464 536 419 536 c 0
 309 536 197 438 172 319 c 2
 157 248 l 2
 154 233 152 217 152 203 c 0
 152 101 227 25 328 25 c 0
 397 25 454 51 522 115 c 0
 530 123 534 125 542 125 c 0
 552 125 558 119 558 111 c 0
 558 100 551 91 524 67 c 0
 461 14 389 -16 319 -16 c 0
 201 -16 110 76 110 196 c 0
 110 212 112 227 115 242 c 2
 132 325 l 2
 145 386 188 455 242 502 c 0
 296 550 361 576 428 576 c 0
 494 576 549 552 586 507 c 1xd8
EndSplineSet
Validated: 1
EndChar

StartChar: D
Encoding: 68 68 37
Width: 600
Flags: W
HStem: 0 41<47.4254 113 154 378.872> 522 41<158.425 215 256 480.232>
VStem: 551 41<292.45 442.924>
LayerCount: 2
Fore
SplineSet
113 41 m 1
 215 522 l 1
 181 522 l 2
 165 522 158 527 158 538 c 0
 158 554 170 563 190 563 c 2
 410 563 l 2
 519 563 592 484 592 368 c 0
 592 348 590 329 586 310 c 2
 574 254 l 2
 544 112 419 0 290 0 c 2
 70 0 l 2
 54 0 47 5 47 16 c 0
 47 32 59 41 79 41 c 2
 113 41 l 1
154 41 m 1
 303 41 l 2
 399 41 508 139 531 245 c 2
 547 318 l 1
 549 332 551 346 551 357 c 0
 551 399 538 440 514 472 c 0
 488 507 453 522 399 522 c 2
 256 522 l 1
 154 41 l 1
EndSplineSet
Validated: 1
EndChar

StartChar: E
Encoding: 69 69 38
Width: 600
Flags: W
HStem: 0 41<47.3131 133 174 488> 272 41<232 368> 522 41<158.313 235 276 569>
LayerCount: 2
Fore
SplineSet
223 272 m 1
 174 41 l 1
 488 41 l 1
 513 160 l 2
 517 178 526 187 540 187 c 0
 549 187 556 180 556 172 c 0
 556 169 555 165 554 160 c 2
 520 0 l 1
 70 0 l 2
 54 0 47 5 47 17 c 0
 47 32 59 41 79 41 c 2
 133 41 l 1
 235 522 l 1
 181 522 l 2
 165 522 158 527 158 539 c 0
 158 554 170 563 190 563 c 2
 619 563 l 1
 589 424 l 2
 586 406 577 397 563 397 c 0
 554 397 547 404 547 412 c 2
 548 424 l 1
 569 522 l 1
 276 522 l 1
 232 313 l 1
 377 313 l 1
 386 358 l 2
 390 376 399 385 412 385 c 0
 422 385 429 378 429 370 c 0
 429 368 428 362 427 358 c 2
 399 227 l 2
 396 209 387 200 373 200 c 0
 364 200 357 207 357 215 c 2
 358 227 l 1
 368 272 l 1
 223 272 l 1
EndSplineSet
Validated: 1
EndChar

StartChar: F
Encoding: 70 70 39
Width: 600
Flags: W
HStem: 0 41<47.4254 133 174 335.543> 272 41<232 368> 522 41<158.425 235 276 590>
LayerCount: 2
Fore
SplineSet
223 272 m 1
 174 41 l 1
 312 41 l 2
 329 41 336 36 336 25 c 0
 336 10 323 0 304 0 c 2
 70 0 l 2
 54 0 47 5 47 16 c 0
 47 32 59 41 79 41 c 2
 133 41 l 1
 235 522 l 1
 181 522 l 2
 165 522 158 527 158 538 c 0
 158 554 170 563 190 563 c 2
 640 563 l 1
 610 424 l 2
 607 406 598 397 584 397 c 0
 576 397 568 404 568 412 c 2
 569 424 l 1
 590 522 l 1
 276 522 l 1
 232 313 l 1
 377 313 l 1
 386 358 l 2
 390 376 399 385 412 385 c 0
 422 385 429 379 429 370 c 0
 429 368 428 362 427 358 c 2
 399 227 l 2
 396 209 387 200 373 200 c 0
 364 200 357 207 357 215 c 2
 358 227 l 1
 368 272 l 1
 223 272 l 1
EndSplineSet
Validated: 1
EndChar

StartChar: G
Encoding: 71 71 40
Width: 600
Flags: W
HStem: -16 41<238.72 450.776> 209 41<362.425 524 565 611.541> 536 40<338.63 522.179> 543 20G<612.5 624>
VStem: 108 42<105.848 308.312>
LayerCount: 2
Fore
SplineSet
575 467 m 1xe8
 570 476 551 499 537 508 c 1
 513 525 468 536 428 536 c 0
 313 536 197 438 172 317 c 1
 156 244 l 2
 152 224 150 206 150 187 c 0
 150 86 222 25 341 25 c 0
 393 25 430 33 492 59 c 1
 524 209 l 1
 385 209 l 2
 369 209 362 214 362 225 c 0
 362 241 374 250 394 250 c 2
 588 250 l 2
 605 250 612 245 612 234 c 0
 612 219 599 209 579 209 c 2
 565 209 l 1
 528 36 l 1
 462 2 392 -16 330 -16 c 0
 193 -16 108 59 108 179 c 0
 108 200 110 222 115 244 c 2
 131 318 l 2
 162 463 295 576 436 576 c 0
 502 576 553 558 590 522 c 1
 593 536 l 2xe8
 597 554 606 563 619 563 c 0xd8
 629 563 636 556 636 548 c 0
 636 545 636 544 634 536 c 2
 615 445 l 2
 611 427 603 417 588 417 c 0
 580 417 575 420 572 429 c 1
 571 431 571 433 571 436 c 0
 571 444 573 454 575 467 c 1xe8
EndSplineSet
Validated: 1
EndChar

StartChar: H
Encoding: 72 72 41
Width: 600
Flags: W
HStem: 0 41<57.4254 135 176 252.541 360.425 446 487 555.538> 272 41<234 495> 522 41<189.425 237 278 363.541 471.425 548 589 645.542>
LayerCount: 2
Fore
SplineSet
495 272 m 1
 225 272 l 1
 176 41 l 1
 230 41 l 2
 247 41 253 37 253 25 c 0
 253 10 240 0 221 0 c 2
 81 0 l 2
 64 0 57 5 57 16 c 0
 57 32 69 41 89 41 c 2
 135 41 l 1
 237 522 l 1
 212 522 l 2
 196 522 189 527 189 538 c 0
 189 554 201 563 221 563 c 2
 341 563 l 2
 358 563 364 559 364 547 c 0
 364 532 352 522 332 522 c 2
 278 522 l 1
 234 313 l 1
 504 313 l 1
 548 522 l 1
 494 522 l 2
 478 522 471 527 471 538 c 0
 471 554 483 563 503 563 c 2
 623 563 l 2
 640 563 646 559 646 547 c 0
 646 532 634 522 614 522 c 2
 589 522 l 1
 487 41 l 1
 532 41 l 2
 550 41 556 37 556 25 c 0
 556 10 543 0 524 0 c 2
 383 0 l 2
 367 0 360 5 360 16 c 0
 360 32 372 41 392 41 c 2
 446 41 l 1
 495 272 l 1
EndSplineSet
Validated: 1
EndChar

StartChar: I
Encoding: 73 73 42
Width: 600
Flags: W
HStem: 0 41<117.424 288 329 491.538> 522 41<228.424 390 431 602.538>
LayerCount: 2
Fore
SplineSet
431 522 m 1
 329 41 l 1
 468 41 l 2
 486 41 492 37 492 25 c 0
 492 10 479 0 460 0 c 2
 140 0 l 2
 124 0 117 5 117 16 c 0
 117 32 129 41 148 41 c 2
 288 41 l 1
 390 522 l 1
 251 522 l 2
 235 522 228 527 228 538 c 0
 228 554 240 563 259 563 c 2
 579 563 l 2
 597 563 603 559 603 547 c 0
 603 532 590 522 571 522 c 2
 431 522 l 1
EndSplineSet
Validated: 1
EndChar

StartChar: J
Encoding: 74 74 43
Width: 600
Flags: W
HStem: -16 41<202.348 356.657> 522 41<348.425 530 571 698.542>
LayerCount: 2
Fore
SplineSet
571 522 m 1
 495 165 l 2
 474 67 371 -16 269 -16 c 0
 205 -16 158 9 100 74 c 1
 132 223 l 2
 136 241 144 250 158 250 c 0
 167 250 174 243 174 235 c 2
 173 223 l 1
 145 93 l 1
 186 47 228 25 278 25 c 0
 360 25 438 87 454 165 c 2
 530 522 l 1
 372 522 l 2
 355 522 348 527 348 538 c 0
 348 554 360 563 380 563 c 2
 676 563 l 2
 693 563 699 559 699 547 c 0
 699 532 687 522 667 522 c 2
 571 522 l 1
EndSplineSet
Validated: 1
EndChar

StartChar: K
Encoding: 75 75 44
Width: 600
Flags: W
HStem: 0 41<47.3131 133 174 271.543 494.831 576.543> 522 41<158.313 235 276 382.538 487.425 556 613 661.538>
LayerCount: 2
Fore
SplineSet
212 221 m 1
 174 41 l 1
 248 41 l 2
 265 41 272 36 272 25 c 0
 272 10 259 0 240 0 c 2
 70 0 l 2
 54 0 47 5 47 17 c 0
 47 32 59 41 79 41 c 2
 133 41 l 1
 235 522 l 1
 181 522 l 2
 165 522 158 527 158 539 c 0
 158 554 170 563 190 563 c 2
 359 563 l 2
 377 563 383 559 383 547 c 0
 383 532 371 522 351 522 c 2
 276 522 l 1
 223 273 l 1
 556 522 l 1
 511 522 l 2
 494 522 487 527 487 538 c 0
 487 554 499 563 519 563 c 2
 638 563 l 2
 656 563 662 559 662 547 c 0
 662 532 650 522 630 522 c 2
 613 522 l 1
 349 324 l 1
 437 284 464 233 498 41 c 1
 554 41 l 2
 570 41 577 36 577 25 c 0
 577 10 564 0 545 0 c 2
 459 0 l 1
 428 204 397 263 309 294 c 1
 212 221 l 1
EndSplineSet
Validated: 1
EndChar

StartChar: L
Encoding: 76 76 45
Width: 600
Flags: W
HStem: 0 41<67.4254 195 236 508> 522 41<178.312 297 338 465.541>
LayerCount: 2
Fore
SplineSet
338 522 m 1
 236 41 l 1
 508 41 l 1
 542 201 l 2
 546 219 555 228 568 228 c 0
 578 228 585 222 585 214 c 0
 585 211 584 206 583 201 c 2
 541 0 l 1
 90 0 l 2
 74 0 67 5 67 16 c 0
 67 32 79 41 99 41 c 2
 195 41 l 1
 297 522 l 1
 201 522 l 2
 184 522 178 527 178 539 c 0
 178 554 190 563 209 563 c 2
 443 563 l 2
 460 563 466 559 466 547 c 0
 466 532 454 522 434 522 c 2
 338 522 l 1
EndSplineSet
Validated: 1
EndChar

StartChar: M
Encoding: 77 77 46
Width: 600
Flags: W
HStem: 0 41<15.3131 81 122 219.543 394.312 500 541 597.543> 522 41<135.313 183 224 232 594 602 643 699.542>
LayerCount: 2
Fore
SplineSet
362 169 m 1
 316 169 l 1
 232 522 l 1
 224 522 l 1
 122 41 l 1
 196 41 l 2
 213 41 220 36 220 25 c 0
 220 10 207 0 188 0 c 2
 38 0 l 2
 22 0 15 5 15 17 c 0
 15 32 27 41 47 41 c 2
 81 41 l 1
 183 522 l 1
 158 522 l 2
 141 522 135 527 135 539 c 0
 135 554 147 563 167 563 c 2
 266 563 l 1
 349 215 l 1
 577 563 l 1
 677 563 l 2
 694 563 700 559 700 547 c 0
 700 532 688 522 668 522 c 2
 643 522 l 1
 541 41 l 1
 575 41 l 2
 591 41 598 36 598 25 c 0
 598 10 585 0 566 0 c 2
 417 0 l 2
 401 0 394 5 394 17 c 0
 394 32 406 41 425 41 c 2
 500 41 l 1
 602 522 l 1
 594 522 l 1
 362 169 l 1
EndSplineSet
Validated: 1
EndChar

StartChar: N
Encoding: 78 78 47
Width: 600
Flags: W
HStem: 0 41<46.3131 112 153 250.543> 522 41<137.313 214 473.425 571 612 677.542>
LayerCount: 2
Fore
SplineSet
501 0 m 1
 449 0 l 1
 251 504 l 1
 153 41 l 1
 227 41 l 2
 244 41 251 37 251 25 c 0
 251 10 238 0 219 0 c 2
 69 0 l 2
 53 0 46 5 46 17 c 0
 46 32 58 41 78 41 c 2
 112 41 l 1
 214 522 l 1
 160 522 l 2
 143 522 137 527 137 539 c 0
 137 554 149 563 169 563 c 2
 275 563 l 1
 473 59 l 1
 571 522 l 1
 497 522 l 2
 480 522 473 527 473 538 c 0
 473 554 485 563 505 563 c 2
 655 563 l 2
 672 563 678 559 678 547 c 0
 678 532 666 522 646 522 c 2
 612 522 l 1
 501 0 l 1
EndSplineSet
Validated: 1
EndChar

StartChar: O
Encoding: 79 79 48
Width: 600
Flags: W
HStem: -16 41<229.581 385.849> 535 41<332.084 488.052>
VStem: 102 42<120.049 327.537> 574 42<237.015 441.222>
LayerCount: 2
Fore
SplineSet
422 576 m 0
 536 576 616 486 616 357 c 0
 616 164 461 -16 296 -16 c 0
 181 -16 102 74 102 207 c 0
 102 396 258 576 422 576 c 0
415 535 m 0
 277 535 144 378 144 216 c 0
 144 106 211 25 302 25 c 0
 441 25 574 181 574 345 c 0
 574 455 507 535 415 535 c 0
EndSplineSet
Validated: 1
EndChar

StartChar: P
Encoding: 80 80 49
Width: 600
Flags: W
HStem: 0 41<47.3131 133 174 335.541> 231 41<223 442.988> 522 41<158.313 235 276 496.885>
VStem: 545 42<358.681 478.236>
LayerCount: 2
Fore
SplineSet
214 231 m 1
 174 41 l 1
 312 41 l 2
 329 41 336 36 336 25 c 0
 336 10 323 0 303 0 c 2
 70 0 l 2
 54 0 47 5 47 17 c 0
 47 32 59 41 79 41 c 2
 133 41 l 1
 235 522 l 1
 181 522 l 2
 164 522 158 527 158 539 c 0
 158 554 170 563 190 563 c 2
 430 563 l 2
 522 563 587 508 587 431 c 0
 587 324 474 231 346 231 c 2
 214 231 l 1
223 272 m 1
 357 272 l 2
 455 272 545 343 545 421 c 0
 545 479 494 522 425 522 c 2
 276 522 l 1
 223 272 l 1
EndSplineSet
Validated: 1
EndChar

StartChar: Q
Encoding: 81 81 50
Width: 600
Flags: W
HStem: -115 41<358.261 491.536> -89 41<239.598 385.002> -16 41<301 383.71> 535 41<332.084 488.245>
VStem: 102 42<119.588 327.505> 574 42<233.625 440.701>
LayerCount: 2
Fore
SplineSet
301 -16 m 1xbc
 238 -56 l 1
 270 -50 286 -48 307 -48 c 0x7c
 337 -48 359 -52 386 -63 c 0
 409 -72 416 -74 429 -74 c 0
 450 -74 468 -67 504 -47 c 0
 509 -44 513 -43 517 -43 c 0
 526 -43 533 -49 533 -59 c 0
 533 -70 527 -76 510 -86 c 0
 478 -104 443 -115 418 -115 c 0xbc
 402 -115 391 -112 364 -102 c 0
 339 -92 323 -89 298 -89 c 0x7c
 269 -89 200 -100 153 -112 c 0
 149 -113 145 -115 143 -115 c 0
 133 -115 127 -107 127 -97 c 0
 127 -89 132 -81 142 -75 c 2
 246 -10 l 1
 160 10 102 97 102 206 c 0
 102 396 258 576 422 576 c 0
 537 576 616 486 616 354 c 0
 616 166 465 -11 301 -16 c 1xbc
415 535 m 0
 277 535 144 379 144 216 c 0
 144 106 211 25 302 25 c 0
 441 25 574 181 574 346 c 0
 574 455 507 535 415 535 c 0
EndSplineSet
Validated: 1
EndChar

StartChar: R
Encoding: 82 82 51
Width: 600
Flags: W
HStem: 0 41<47.3131 133 174 271.543 533.019 593.543> 251 41<227 383.24> 522 41<158.312 235 276 498.377>
VStem: 505 89<1.02173 36.0336> 545 42<371.124 479.24>
LayerCount: 2
Fore
SplineSet
218 251 m 1xf0
 174 41 l 1
 248 41 l 2
 265 41 272 37 272 25 c 0
 272 10 259 0 240 0 c 2
 70 0 l 2
 54 0 47 5 47 17 c 0
 47 32 59 41 79 41 c 2
 133 41 l 1
 235 522 l 1
 181 522 l 2
 164 522 158 527 158 539 c 0
 158 554 170 563 189 563 c 2
 438 563 l 2
 522 563 587 507 587 434 c 0xe8
 587 357 528 299 414 262 c 1
 468 218 489 183 540 41 c 1
 570 41 l 2
 587 41 594 36 594 25 c 0
 594 10 581 0 562 0 c 2
 505 0 l 1
 452 162 419 216 351 251 c 1
 218 251 l 1xf0
227 292 m 1
 341 292 l 2
 448 292 545 355 545 425 c 0
 545 479 493 522 429 522 c 2
 276 522 l 1
 227 292 l 1
EndSplineSet
Validated: 1
EndChar

StartChar: S
Encoding: 83 83 52
Width: 600
Flags: W
HStem: -17 41<218.264 397.827> 0 21G<107.5 119> 536 41<332.77 494.209> 543 20G<579 590.5>
VStem: 96 64<75.9599 125> 121 43<109 166.275> 201 45<347.792 462.254> 500 45<109.25 228.852> 536 42<405.506 459> 539 63<442.656 494.723>
LayerCount: 2
Fore
SplineSet
555 517 m 1xab
 559 536 l 2xab
 563 554 572 563 586 563 c 0
 595 563 602 556 602 548 c 0x1240
 602 545 602 543 600 536 c 2
 578 433 l 2
 575 416 565 405 553 405 c 0
 547 405 542 408 536 417 c 1x2280
 539 459 l 2x2240
 539 464 517 497 508 506 c 0
 491 523 451 536 416 536 c 0
 326 536 246 471 246 399 c 0
 246 379 257 356 272 344 c 0
 292 328 317 319 378 309 c 0
 453 296 480 287 505 269 c 0
 528 252 545 217 545 185 c 0
 545 137 520 84 482 50 c 0
 437 10 364 -17 301 -17 c 0xa3
 231 -17 176 9 145 56 c 1
 139 27 l 2
 135 9 126 0 112 0 c 0
 103 0 96 7 96 15 c 0
 96 17 95 23 96 27 c 2x4b
 121 139 l 2
 125 157 135 167 148 167 c 0
 154 167 159 163 164 155 c 1x46
 160 109 l 2
 160 103 188 65 201 55 c 0
 222 37 268 24 307 24 c 0
 410 24 500 95 500 177 c 0
 500 199 487 224 470 237 c 0
 450 253 430 259 361 271 c 0
 293 283 259 295 234 317 c 0
 214 334 201 364 201 392 c 0
 201 489 305 577 420 577 c 0
 479 577 523 558 555 517 c 1xab
EndSplineSet
Validated: 1
EndChar

StartChar: T
Encoding: 84 84 53
Width: 600
Flags: W
HStem: 0 41<152.313 289 330 457.543> 422 21G<177.5 189 595 604.5> 522 41<224 391 432 598>
LayerCount: 2
Fore
SplineSet
330 41 m 1
 435 41 l 2
 451 41 458 36 458 25 c 0
 458 10 445 0 426 0 c 2
 175 0 l 2
 159 0 152 5 152 17 c 0
 152 32 164 41 184 41 c 2
 289 41 l 1
 391 522 l 1
 224 522 l 1
 209 449 l 2
 205 431 196 422 182 422 c 0
 173 422 166 429 166 437 c 2
 167 449 l 1
 192 563 l 1
 648 563 l 1
 624 449 l 2
 620 431 611 422 598 422 c 0
 592 422 583 428 582 435 c 0
 582 436 582 447 583 449 c 2
 598 522 l 1
 432 522 l 1
 330 41 l 1
EndSplineSet
Validated: 1
EndChar

StartChar: U
Encoding: 85 85 54
Width: 600
Flags: W
HStem: -16 41<231.601 386.879> 522 41<155.425 212 253 358.545 472.313 569 610 675.542>
VStem: 136 42<79.9781 216.039>
LayerCount: 2
Fore
SplineSet
610 522 m 1
 539 185 l 2
 515 72 409 -16 297 -16 c 0
 201 -16 136 47 136 140 c 0
 136 154 138 170 141 185 c 2
 212 522 l 1
 179 522 l 2
 162 522 155 527 155 538 c 0
 155 554 167 563 187 563 c 2
 337 563 l 2
 353 563 359 559 359 547 c 0
 359 532 347 522 328 522 c 2
 253 522 l 1
 182 185 l 2
 179 173 178 161 178 151 c 0
 178 76 230 25 305 25 c 0
 394 25 479 95 498 185 c 2
 569 522 l 1
 495 522 l 2
 478 522 472 527 472 539 c 0
 472 554 484 563 504 563 c 2
 653 563 l 2
 670 563 676 559 676 547 c 0
 676 532 664 522 644 522 c 2
 610 522 l 1
EndSplineSet
Validated: 1
EndChar

StartChar: V
Encoding: 86 86 55
Width: 600
Flags: W
HStem: 0 21G<264.552 336.261> 522 41<124.425 178 222 329.575 502.424 604 644 706.575>
LayerCount: 2
Fore
SplineSet
268 0 m 1
 178 522 l 1
 147 522 l 2
 130 522 124 527 124 538 c 0
 124 554 136 563 156 563 c 2
 306 563 l 2
 324 563 330 559 330 547 c 0
 330 531 318 522 298 522 c 2
 222 522 l 1
 305 41 l 1
 307 41 l 1
 604 522 l 1
 525 522 l 2
 508 522 502 527 502 538 c 0
 502 554 514 563 533 563 c 2
 684 563 l 2
 701 563 707 559 707 547 c 0
 707 531 695 522 675 522 c 2
 644 522 l 1
 324 0 l 1
 268 0 l 1
EndSplineSet
Validated: 1
EndChar

StartChar: W
Encoding: 87 87 56
Width: 600
Flags: W
HStem: 0 21G<122 195 410.65 482.628> 522 41<135.425 173 214 339.538 491.425 610 649 695.542>
LayerCount: 2
Fore
SplineSet
122 0 m 1
 173 522 l 1
 158 522 l 2
 142 522 135 527 135 538 c 0
 135 554 147 563 167 563 c 2
 316 563 l 2
 334 563 340 559 340 547 c 0
 340 532 328 522 308 522 c 2
 214 522 l 1
 169 46 l 1
 364 438 l 1
 426 438 l 1
 452 46 l 1
 610 522 l 1
 514 522 l 2
 498 522 491 527 491 538 c 0
 491 554 503 563 523 563 c 2
 673 563 l 2
 690 563 696 559 696 547 c 0
 696 532 684 522 664 522 c 2
 649 522 l 1
 476 0 l 1
 412 0 l 1
 385 400 l 1
 185 0 l 1
 122 0 l 1
EndSplineSet
Validated: 1
EndChar

StartChar: X
Encoding: 88 88 57
Width: 600
Flags: W
HStem: 0 41<44.4254 93 142 229.541 378.425 472 525 564.542> 522 41<166.424 204 256 330.541 496.425 565 615 661.542>
LayerCount: 2
Fore
SplineSet
386 288 m 1
 525 41 l 1
 542 41 l 2
 559 41 565 37 565 25 c 0
 565 10 552 0 533 0 c 2
 401 0 l 2
 385 0 378 5 378 16 c 0
 378 32 390 41 410 41 c 2
 472 41 l 1
 352 255 l 1
 142 41 l 1
 207 41 l 2
 224 41 230 37 230 25 c 0
 230 10 218 0 198 0 c 2
 67 0 l 2
 51 0 44 5 44 16 c 0
 44 32 56 41 76 41 c 2
 93 41 l 1
 334 288 l 1
 204 522 l 1
 189 522 l 2
 173 522 166 527 166 538 c 0
 166 554 178 563 197 563 c 2
 308 563 l 2
 325 563 331 559 331 547 c 0
 331 532 319 522 299 522 c 2
 256 522 l 1
 368 321 l 1
 565 522 l 1
 519 522 l 2
 503 522 496 527 496 538 c 0
 496 554 508 563 528 563 c 2
 639 563 l 2
 656 563 662 559 662 547 c 0
 662 532 650 522 630 522 c 2
 615 522 l 1
 386 288 l 1
EndSplineSet
Validated: 1
EndChar

StartChar: Y
Encoding: 89 89 58
Width: 600
Flags: W
HStem: 0 41<153.425 290 331 458.541> 522 41<166.425 213 262 331.541 499.427 564 610 664.663>
LayerCount: 2
Fore
SplineSet
376 254 m 1
 331 41 l 1
 436 41 l 2
 453 41 459 36 459 25 c 0
 459 10 447 0 427 0 c 2
 176 0 l 2
 160 0 153 5 153 16 c 0
 153 32 165 41 185 41 c 2
 290 41 l 1
 335 254 l 1
 213 522 l 1
 189 522 l 2
 173 522 166 527 166 538 c 0
 166 554 178 563 198 563 c 2
 309 563 l 2
 326 563 332 559 332 547 c 0
 332 532 320 522 300 522 c 2
 262 522 l 1
 366 295 l 1
 564 522 l 1
 523 522 l 2
 506 522 499 527 499 538 c 0
 499 554 511 563 532 563 c 2
 642 563 l 2
 658 563 665 558 665 546 c 0
 665 532 652 522 633 522 c 2
 610 522 l 1
 376 254 l 1
EndSplineSet
Validated: 1
EndChar

StartChar: Z
Encoding: 90 90 59
Width: 600
Flags: W
HStem: 0 41<150 465> 522 41<273 542>
LayerCount: 2
Fore
SplineSet
497 0 m 1
 103 0 l 1
 116 59 l 1
 541 519 l 1
 542 522 l 1
 273 522 l 1
 248 404 l 2
 244 385 235 376 221 376 c 0
 212 376 205 383 205 392 c 0
 205 395 205 396 207 404 c 2
 241 563 l 1
 590 563 l 1
 578 505 l 1
 151 45 l 1
 150 41 l 1
 465 41 l 1
 495 182 l 2
 499 200 507 209 521 209 c 0
 531 209 538 202 538 194 c 0
 538 192 538 189 537 186 c 2
 536 182 l 1
 497 0 l 1
EndSplineSet
Validated: 1
EndChar

StartChar: bracketleft
Encoding: 91 91 60
Width: 600
Flags: W
HStem: -124 41<304 423.541> 563 41<441 569.575>
VStem: 254 316
LayerCount: 2
Fore
SplineSet
441 563 m 1
 304 -83 l 1
 401 -83 l 2
 418 -83 424 -87 424 -99 c 0
 424 -114 412 -124 392 -124 c 2
 254 -124 l 1
 409 604 l 1
 547 604 l 2
 564 604 570 600 570 588 c 0
 570 572 558 563 538 563 c 2
 441 563 l 1
EndSplineSet
Validated: 1
EndChar

StartChar: backslash
Encoding: 92 92 61
Width: 600
Flags: W
VStem: 250 222
LayerCount: 2
Fore
SplineSet
292 650 m 2
 472 -46 l 2
 473 -50 474 -55 474 -57 c 0
 474 -69 462 -81 449 -81 c 0
 439 -81 435 -77 432 -63 c 2
 250 633 l 2
 249 637 250 642 250 644 c 0
 250 656 262 668 275 668 c 0
 285 668 289 664 292 650 c 2
EndSplineSet
Validated: 1
EndChar

StartChar: bracketright
Encoding: 93 93 62
Width: 600
Flags: W
HStem: -124 41<132.425 261> 563 41<278.459 398>
VStem: 132 316
LayerCount: 2
Fore
SplineSet
261 -83 m 1
 398 563 l 1
 301 563 l 2
 284 563 278 567 278 579 c 0
 278 594 290 604 310 604 c 2
 448 604 l 1
 293 -124 l 1
 155 -124 l 2
 138 -124 132 -120 132 -108 c 0
 132 -92 144 -83 164 -83 c 2
 261 -83 l 1
EndSplineSet
Validated: 1
EndChar

StartChar: asciicircum
Encoding: 94 94 63
Width: 600
Flags: W
HStem: 354 261
LayerCount: 2
Fore
SplineSet
430 615 m 1
 562 392 l 2
 565 387 567 381 567 378 c 0
 567 366 554 354 542 354 c 0
 534 354 530 357 524 367 c 2
 417 552 l 1
 231 367 l 2
 221 357 216 354 208 354 c 0
 199 354 192 361 192 370 c 0
 192 377 195 382 205 392 c 2
 430 615 l 1
EndSplineSet
Validated: 1
EndChar

StartChar: underscore
Encoding: 95 95 64
Width: 600
Flags: W
HStem: -125 50<-61 564>
LayerCount: 2
Fore
SplineSet
564 -75 m 1
 564 -125 l 1
 -61 -125 l 1
 -61 -75 l 1
 564 -75 l 1
EndSplineSet
Validated: 1
EndChar

StartChar: grave
Encoding: 96 96 65
Width: 600
Flags: W
HStem: 343 261<482.002 522>
VStem: 482 62<345.95 365>
LayerCount: 2
Fore
SplineSet
522 604 m 1
 544 379 l 1
 544 376 l 2
 544 358 527 343 508 343 c 0
 495 343 489 348 482 365 c 2
 388 604 l 1
 522 604 l 1
EndSplineSet
Validated: 1
EndChar

StartChar: a
Encoding: 97 97 66
Width: 600
Flags: W
HStem: -16 41<158.331 327.604> 0 41<469 545.542> 217 41<223.914 460.073> 390 41<268.134 458.632>
VStem: 93 42<47.9591 150.081> 486 42<276.938 364.532>
LayerCount: 2
Fore
SplineSet
419 0 m 1x7c
 433 67 l 1
 360 10 295 -16 225 -16 c 0xbc
 143 -16 93 23 93 87 c 0
 93 184 200 258 338 258 c 0
 384 258 414 253 470 237 c 1
 486 308 l 2
 487 313 486 316 486 322 c 0
 486 363 444 390 379 390 c 0
 345 390 304 382 231 360 c 0
 226 359 223 358 220 358 c 0
 212 358 205 365 205 374 c 0
 205 384 211 392 223 397 c 0
 259 412 353 431 391 431 c 0
 472 431 528 390 528 331 c 0
 528 322 527 316 526 308 c 2
 469 41 l 1
 523 41 l 2x7c
 540 41 546 37 546 25 c 0xbc
 546 10 534 0 514 0 c 2
 419 0 l 1x7c
443 112 m 1
 462 202 l 1
 427 211 382 217 337 217 c 0
 222 217 135 165 135 96 c 0
 135 51 170 25 231 25 c 0
 304 25 361 49 443 112 c 1
EndSplineSet
Validated: 1
EndChar

StartChar: b
Encoding: 98 98 67
Width: 600
Flags: W
HStem: -16 41<251.532 408.894> 0 41<26.3131 112> 390 41<321.252 479.821> 563 41<146.312 223>
VStem: 549 42<162.792 323.516>
LayerCount: 2
Fore
SplineSet
272 604 m 1x78
 214 328 l 1
 279 399 342 431 416 431 c 0
 519 431 591 360 591 258 c 0
 591 117 459 -16 319 -16 c 0xb8
 247 -16 195 19 163 88 c 1
 144 0 l 1
 49 0 l 2
 33 0 26 5 26 17 c 0
 26 32 38 41 58 41 c 2
 112 41 l 1
 223 563 l 1
 169 563 l 2
 152 563 146 567 146 580 c 0
 146 595 158 604 177 604 c 2
 272 604 l 1x78
404 390 m 0
 290 390 184 282 184 167 c 0
 184 86 245 25 326 25 c 0
 441 25 549 132 549 247 c 0
 549 330 488 390 404 390 c 0
EndSplineSet
Validated: 1
EndChar

StartChar: c
Encoding: 99 99 68
Width: 600
Flags: W
HStem: -17 41<232.671 422.468> 391 41<302.282 484.361> 397 20G<573 584.5>
VStem: 121 42<88.0073 252.353> 532 43<270.465 318> 535 61<294.719 347.143>
LayerCount: 2
Fore
SplineSet
551 376 m 1xd4
 554 391 l 1xd4
 557 410 566 417 580 417 c 0
 589 417 596 410 596 402 c 0xb4
 596 399 595 397 594 391 c 2
 575 298 l 2
 571 280 562 270 549 270 c 0
 542 270 537 273 532 282 c 1xd8
 535 318 l 2
 535 323 510 353 498 362 c 0
 477 379 433 391 393 391 c 0
 323 391 258 360 216 306 c 0
 183 264 163 210 163 162 c 0
 163 81 225 24 312 24 c 0
 387 24 460 50 519 97 c 0
 527 104 534 108 539 108 c 0
 546 108 555 99 555 91 c 0
 555 79 534 59 501 39 c 0
 442 3 369 -17 301 -17 c 0
 196 -17 121 53 121 152 c 0
 121 301 253 432 403 432 c 0
 465 432 516 413 551 376 c 1xd4
EndSplineSet
Validated: 1
EndChar

StartChar: d
Encoding: 100 100 69
Width: 600
Flags: W
HStem: -16 41<210.155 369.813> 0 41<510 586.545> 390 41<282.357 442.345> 563 41<503.313 580>
VStem: 102 42<92.0212 252.836>
LayerCount: 2
Fore
SplineSet
630 604 m 1xb8
 510 41 l 1
 565 41 l 2x78
 581 41 587 37 587 25 c 0xb8
 587 10 575 0 556 0 c 2
 461 0 l 1x78
 480 89 l 1
 417 18 350 -16 274 -16 c 0
 176 -16 102 58 102 157 c 0
 102 299 232 431 371 431 c 0
 446 431 496 398 530 327 c 1
 580 563 l 1
 526 563 l 2
 509 563 503 567 503 580 c 0
 503 595 515 604 535 604 c 2
 630 604 l 1xb8
365 390 m 0
 251 390 144 284 144 169 c 0
 144 84 203 25 287 25 c 0xb8
 403 25 509 132 509 248 c 0
 509 331 450 390 365 390 c 0
EndSplineSet
Validated: 1
EndChar

StartChar: e
Encoding: 101 101 70
Width: 600
Flags: W
HStem: -16 41<225.098 424.353> 199 41<155 530> 390 41<281.587 457.986>
VStem: 104 41<100.557 197.597> 530 40<240.59 322.376>
LayerCount: 2
Fore
SplineSet
562 199 m 1
 146 199 l 1
 145 189 145 181 145 177 c 0
 145 87 213 25 310 25 c 0
 373 25 450 47 498 79 c 0
 507 84 511 86 516 86 c 0
 525 86 530 79 530 70 c 0
 530 58 521 48 491 32 c 0
 437 2 364 -16 300 -16 c 0
 184 -16 104 60 104 171 c 0
 104 309 235 431 383 431 c 0
 492 431 570 361 570 262 c 0
 570 248 567 224 562 199 c 1
155 240 m 1
 530 240 l 1
 531 245 530 250 530 252 c 0
 530 333 466 390 375 390 c 0
 277 390 192 332 155 240 c 1
EndSplineSet
Validated: 1
EndChar

StartChar: f
Encoding: 102 102 71
Width: 600
Flags: W
HStem: 0 41<109.313 239 280 480.543> 376 41<199.313 310 360 571.542> 551 40<513.848 662.389> 563 41<423.196 642.191>
LayerCount: 2
Fore
SplineSet
351 376 m 1xd0
 280 41 l 1
 457 41 l 2
 474 41 481 37 481 25 c 0
 481 10 468 0 449 0 c 2
 132 0 l 2
 116 0 109 5 109 17 c 0
 109 32 121 41 141 41 c 2
 239 41 l 1
 310 376 l 1
 222 376 l 2
 206 376 199 381 199 393 c 0
 199 408 211 417 231 417 c 2
 319 417 l 1
 332 478 l 2
 347 551 423 604 512 604 c 0xd0
 551 604 617 597 649 591 c 0
 658 589 663 583 663 576 c 0
 663 562 651 551 637 551 c 0xe0
 635 551 635 551 589 557 c 0
 566 560 525 563 502 563 c 0
 436 563 383 529 373 478 c 2
 360 417 l 1
 549 417 l 2
 566 417 572 413 572 401 c 0
 572 386 560 376 540 376 c 2
 351 376 l 1xd0
EndSplineSet
Validated: 1
EndChar

StartChar: g
Encoding: 103 103 72
Width: 600
Flags: W
HStem: -186 41<139.425 357.217> 10 41<207.384 365.826> 376 41<561 646.542> 390 41<271.685 429.78>
VStem: 105 42<110.196 266.279>
LayerCount: 2
Fore
SplineSet
511 334 m 1xd8
 529 417 l 1
 624 417 l 2
 641 417 647 413 647 401 c 0
 647 386 635 376 615 376 c 2
 561 376 l 1xe8
 475 -28 l 2
 466 -69 447 -100 410 -132 c 0
 367 -170 326 -186 277 -186 c 2
 162 -186 l 2
 146 -186 139 -181 139 -170 c 0
 139 -154 151 -145 171 -145 c 2
 287 -145 l 2
 355 -145 421 -90 435 -22 c 2
 463 107 l 1
 403 40 344 10 271 10 c 0
 174 10 105 79 105 177 c 0
 105 307 230 431 361 431 c 0
 433 431 480 401 511 334 c 1xd8
354 390 m 0xd8
 247 390 147 291 147 186 c 0
 147 106 202 51 282 51 c 0
 392 51 491 150 491 258 c 0
 491 336 435 390 354 390 c 0xd8
EndSplineSet
Validated: 1
EndChar

StartChar: h
Encoding: 104 104 73
Width: 600
Flags: W
HStem: 0 41<55.3131 133 174 242.541 369.312 446 487 555.543> 390 41<323.466 469.408> 563 41<167.312 244>
VStem: 501 42<259.75 359.97>
LayerCount: 2
Fore
SplineSet
293 604 m 1
 239 347 l 1
 303 408 350 431 411 431 c 0
 491 431 543 387 543 319 c 0
 543 310 542 301 540 291 c 2
 487 41 l 1
 532 41 l 2
 549 41 556 36 556 25 c 0
 556 10 543 0 524 0 c 2
 392 0 l 2
 376 0 369 5 369 17 c 0
 369 32 381 41 400 41 c 2
 446 41 l 1
 498 288 l 2
 500 295 501 304 501 309 c 0
 501 330 493 349 477 364 c 0
 457 384 438 390 396 390 c 0
 341 390 309 373 241 309 c 1
 228 296 l 1
 174 41 l 1
 219 41 l 2
 236 41 243 36 243 25 c 0
 243 10 230 0 210 0 c 2
 78 0 l 2
 62 0 55 5 55 17 c 0
 55 32 67 41 87 41 c 2
 133 41 l 1
 244 563 l 1
 189 563 l 2
 173 563 167 567 167 580 c 0
 167 595 179 604 198 604 c 2
 293 604 l 1
EndSplineSet
Validated: 1
EndChar

StartChar: i
Encoding: 105 105 74
Width: 600
Flags: W
HStem: 0 41<96.4241 288 329 512.543> 376 41<218.313 359>
LayerCount: 2
Fore
SplineSet
409 417 m 1
 329 41 l 1
 489 41 l 2
 506 41 513 36 513 25 c 0
 513 10 500 0 481 0 c 2
 119 0 l 2
 103 0 96 5 96 16 c 0
 96 32 108 41 127 41 c 2
 288 41 l 1
 359 376 l 1
 241 376 l 2
 225 376 218 381 218 393 c 0
 218 408 230 417 250 417 c 2
 409 417 l 1
451 624 m 1
 429 520 l 1
 370 520 l 1
 392 624 l 1
 451 624 l 1
EndSplineSet
Validated: 1
EndChar

StartChar: j
Encoding: 106 106 75
Width: 600
Flags: W
HStem: -186 41<112.425 340.406> 376 41<233.427 497>
LayerCount: 2
Fore
SplineSet
497 376 m 1
 257 376 l 2
 240 376 233 381 233 392 c 0
 233 408 245 417 266 417 c 2
 547 417 l 1
 452 -28 l 2
 433 -121 355 -186 264 -186 c 2
 135 -186 l 2
 119 -186 112 -181 112 -170 c 0
 112 -154 124 -145 144 -145 c 2
 272 -145 l 2
 338 -145 397 -96 411 -28 c 2
 497 376 l 1
547 624 m 1
 525 520 l 1
 466 520 l 1
 488 624 l 1
 547 624 l 1
EndSplineSet
Validated: 1
EndChar

StartChar: k
Encoding: 107 107 76
Width: 600
Flags: W
HStem: 0 41<67.3131 153 360.313 420 478 545.543> 376 41<393.313 438 499 577.663> 563 41<187.312 264>
LayerCount: 2
Fore
SplineSet
223 180 m 1
 185 0 l 1
 90 0 l 2
 74 0 67 5 67 17 c 0
 67 32 79 41 99 41 c 2
 153 41 l 1
 264 563 l 1
 210 563 l 2
 193 563 187 567 187 580 c 0
 187 595 199 604 218 604 c 2
 314 604 l 1
 234 229 l 1
 438 376 l 1
 416 376 l 2
 400 376 393 381 393 393 c 0
 393 408 405 417 425 417 c 2
 554 417 l 2
 572 417 578 413 578 400 c 0
 578 386 565 376 546 376 c 2
 499 376 l 1
 314 245 l 1
 478 41 l 1
 523 41 l 2
 539 41 546 37 546 25 c 0
 546 10 533 0 514 0 c 2
 383 0 l 2
 367 0 360 5 360 17 c 0
 360 32 372 41 392 41 c 2
 420 41 l 1
 278 219 l 1
 223 180 l 1
EndSplineSet
Validated: 1
EndChar

StartChar: l
Encoding: 108 108 77
Width: 600
Flags: W
HStem: 0 41<96.4241 288 329 512.543> 563 41<259.425 399>
LayerCount: 2
Fore
SplineSet
449 604 m 1
 329 41 l 1
 489 41 l 2
 506 41 513 36 513 25 c 0
 513 10 500 0 481 0 c 2
 119 0 l 2
 103 0 96 5 96 16 c 0
 96 32 108 41 127 41 c 2
 288 41 l 1
 399 563 l 1
 282 563 l 2
 265 563 259 567 259 579 c 0
 259 595 271 604 291 604 c 2
 449 604 l 1
EndSplineSet
Validated: 1
EndChar

StartChar: m
Encoding: 109 109 78
Width: 600
Flags: W
HStem: 0 41<15.4254 81 121 177.543 331 387.541 541 597.542> 376 41<95.8636 152> 390 41<244.558 338.387 452.525 548.839>
VStem: 561 37<234.875 375.572>
LayerCount: 2
Fore
SplineSet
201 417 m 1xd0
 190 365 l 1
 233 412 267 431 309 431 c 0
 352 431 379 408 391 360 c 1
 440 410 477 431 519 431 c 0
 568 431 603 395 603 345 c 0
 603 338 602 331 600 323 c 2
 541 41 l 1
 575 41 l 2
 592 41 598 37 598 25 c 0
 598 10 585 0 566 0 c 2
 492 0 l 1
 561 319 l 2
 562 324 561 327 561 333 c 0
 561 365 539 390 509 390 c 0
 473 390 437 366 387 308 c 1
 331 41 l 1
 365 41 l 2
 382 41 388 37 388 25 c 0
 388 10 376 0 356 0 c 2
 282 0 l 1
 349 316 l 2
 350 322 351 327 351 332 c 0
 351 364 328 390 300 390 c 0xb0
 265 390 228 366 178 308 c 1
 121 41 l 1
 155 41 l 2
 171 41 178 36 178 25 c 0
 178 10 165 0 146 0 c 2
 37 0 l 2
 22 0 15 5 15 16 c 0
 15 32 27 41 47 41 c 2
 81 41 l 1
 152 376 l 1
 118 376 l 2xd0
 102 376 95 379 95 390 c 0xb0
 95 406 107 417 127 417 c 2
 201 417 l 1xd0
EndSplineSet
Validated: 1
EndChar

StartChar: n
Encoding: 110 110 79
Width: 600
Flags: W
HStem: 0 41<57.4254 135 176 243.541 382.425 448 489 545.542> 376 41<149.864 206> 390 41<326.739 471.126>
VStem: 502 43<263.25 359.97>
LayerCount: 2
Fore
SplineSet
256 417 m 1xd0
 241 348 l 1
 313 412 353 431 414 431 c 0
 493 431 545 387 545 319 c 0
 545 309 544 303 543 295 c 2
 489 41 l 1
 523 41 l 2
 540 41 546 37 546 25 c 0
 546 10 533 0 514 0 c 2
 405 0 l 2
 389 0 382 5 382 16 c 0
 382 32 394 41 414 41 c 2
 448 41 l 1
 502 288 l 2
 504 295 502 298 502 308 c 0
 502 329 493 349 478 364 c 0
 458 384 440 390 403 390 c 0xb0
 339 390 309 373 230 294 c 1
 176 41 l 1
 221 41 l 2
 238 41 244 37 244 25 c 0
 244 10 232 0 212 0 c 2
 81 0 l 2
 64 0 57 5 57 16 c 0
 57 32 69 41 89 41 c 2
 135 41 l 1
 206 376 l 1
 172 376 l 2xd0
 156 376 149 379 149 390 c 0xb0
 149 406 161 417 181 417 c 2
 256 417 l 1xd0
EndSplineSet
Validated: 1
EndChar

StartChar: o
Encoding: 111 111 80
Width: 600
Flags: W
HStem: -16 41<224.645 395.52> 390 41<294.577 463.212>
VStem: 111 42<93.6478 251.775> 535 42<162.575 321.556>
LayerCount: 2
Fore
SplineSet
391 431 m 0
 501 431 577 358 577 252 c 0
 577 113 441 -16 296 -16 c 0
 187 -16 111 58 111 162 c 0
 111 301 247 431 391 431 c 0
382 390 m 0
 264 390 153 284 153 171 c 0
 153 85 216 25 305 25 c 0
 424 25 535 130 535 244 c 0
 535 331 473 390 382 390 c 0
EndSplineSet
Validated: 1
EndChar

StartChar: p
Encoding: 112 112 81
Width: 600
Flags: W
HStem: -186 41<-12.5746 73 114 234.575> 10 41<252.849 420.396> 376 41<106.864 183> 390 41<318.377 485.165>
VStem: 551 42<173.888 328.134>
LayerCount: 2
Fore
SplineSet
233 417 m 1xe8
 216 335 l 1
 283 404 339 431 415 431 c 0xd8
 523 431 593 365 593 264 c 0
 593 131 466 10 326 10 c 0
 249 10 199 40 167 106 c 1
 114 -145 l 1
 211 -145 l 2
 229 -145 235 -149 235 -161 c 0
 235 -177 223 -186 203 -186 c 2
 10 -186 l 2
 -6 -186 -13 -181 -13 -170 c 0
 -13 -154 -1 -145 19 -145 c 2
 73 -145 l 1
 183 376 l 1
 129 376 l 2xe8
 113 376 106 379 106 390 c 0xd8
 106 406 118 417 138 417 c 2
 233 417 l 1xe8
405 390 m 0
 292 390 188 292 188 187 c 0
 188 107 248 51 333 51 c 0
 447 51 551 149 551 255 c 0
 551 335 491 390 405 390 c 0
EndSplineSet
Validated: 1
EndChar

StartChar: q
Encoding: 113 113 82
Width: 600
Flags: W
HStem: -186 41<300.425 430 471 548.543> 10 41<213.471 380.437> 376 41<582 667.542> 390 41<278.258 446.52>
VStem: 105 42<113.725 267.757>
LayerCount: 2
Fore
SplineSet
532 335 m 1xd8
 550 417 l 1
 645 417 l 2
 662 417 668 413 668 401 c 0
 668 386 656 376 636 376 c 2
 582 376 l 1xe8
 471 -145 l 1
 525 -145 l 2
 542 -145 549 -149 549 -161 c 0
 549 -176 536 -186 517 -186 c 2
 324 -186 l 2
 307 -186 300 -181 300 -170 c 0
 300 -154 312 -145 332 -145 c 2
 430 -145 l 1
 484 106 l 1
 423 40 361 10 284 10 c 0
 177 10 105 78 105 178 c 0
 105 311 233 431 374 431 c 0
 450 431 500 401 532 335 c 1xd8
365 390 m 0xd8
 251 390 147 293 147 186 c 0
 147 107 207 51 293 51 c 0
 407 51 512 148 512 254 c 0
 512 335 452 390 365 390 c 0xd8
EndSplineSet
Validated: 1
EndChar

StartChar: r
Encoding: 114 114 83
Width: 600
Flags: W
HStem: 0 41<88.337 216 257 458.663> 376 41<190.336 287> 386 41<455.535 565.748>
LayerCount: 2
Fore
SplineSet
337 417 m 1xc0
 315 315 l 1
 427 400 480 427 532 427 c 0
 558 427 575 420 595 403 c 0
 610 389 619 377 619 369 c 0
 619 357 606 344 592 344 c 0
 586 344 584 345 578 352 c 0
 559 376 542 386 520 386 c 0xa0
 475 386 435 363 304 262 c 1
 257 41 l 1
 436 41 l 2
 451 41 459 36 459 24 c 0
 459 10 446 0 427 0 c 2
 111 0 l 2
 96 0 88 5 88 17 c 0
 88 31 101 41 120 41 c 2
 216 41 l 1
 287 376 l 1
 213 376 l 2
 197 376 190 381 190 393 c 0
 190 407 203 417 221 417 c 2
 337 417 l 1xc0
EndSplineSet
Validated: 1
EndChar

StartChar: s
Encoding: 115 115 84
Width: 600
Flags: W
HStem: -17 42<205.958 407.877> 0 21G<120 131> 391 40<291.237 469.694> 397 20G<535.5 546.5>
VStem: 108 59<58.1719 119.176> 127 43<99.1428 136.41> 190 45<271.974 347.371> 479 46<80.8864 171.641> 502 56<304.936 362.753> 515 43<385 416.184>
LayerCount: 2
Fore
SplineSet
108 27 m 2x4b
 127 110 l 2
 131 128 140 137 154 137 c 0
 163 137 170 130 170 122 c 0x46
 170 120 170 117 169 115 c 0
 168 108 167 102 167 99 c 0
 167 56 225 25 305 25 c 0
 401 25 479 72 479 130 c 0
 479 147 465 168 447 180 c 0
 424 194 399 201 344 207 c 0
 272 215 245 222 221 239 c 0
 203 252 190 276 190 298 c 0
 190 372 277 431 386 431 c 0xab
 444 431 486 416 515 385 c 1
 519 406 529 417 542 417 c 0x1240
 551 417 558 410 558 402 c 0
 558 399 557 396 556 391 c 2
 542 320 l 2
 538 302 528 292 515 292 c 0x2240
 509 292 504 296 499 304 c 1
 502 335 l 2x2280
 502 339 482 363 472 370 c 0
 453 382 416 391 382 391 c 0
 305 391 235 351 235 307 c 0
 235 291 252 271 273 262 c 0
 293 253 293 253 370 245 c 0
 430 238 465 227 491 206 c 0
 511 190 525 162 525 138 c 0
 525 54 423 -17 300 -17 c 0xa3
 235 -17 187 1 153 38 c 1
 150 27 l 2
 146 9 138 0 124 0 c 0
 116 0 108 7 108 15 c 0
 108 17 107 24 108 27 c 2x4b
EndSplineSet
Validated: 1
EndChar

StartChar: t
Encoding: 116 116 85
Width: 600
Flags: W
HStem: -16 41<230.403 426.13> 376 41<127.425 225 275 517.542> 543 20G<278.5 290>
VStem: 165 42<48.3053 189.664>
LayerCount: 2
Fore
SplineSet
275 417 m 1
 495 417 l 2
 512 417 518 413 518 401 c 0
 518 386 505 376 486 376 c 2
 266 376 l 1
 209 109 l 2
 208 102 207 95 207 91 c 0
 207 51 245 25 303 25 c 0
 359 25 435 42 478 65 c 0
 488 70 491 71 496 71 c 0
 504 71 511 64 511 54 c 0
 511 42 500 33 471 20 c 0
 423 -1 349 -16 296 -16 c 0
 217 -16 165 22 165 79 c 0
 165 89 166 97 168 107 c 2
 225 376 l 1
 151 376 l 2
 134 376 127 381 127 392 c 0
 127 408 139 417 159 417 c 2
 234 417 l 1
 259 536 l 2
 263 554 272 563 285 563 c 0
 295 563 302 556 302 548 c 0
 302 545 302 544 300 536 c 2
 275 417 l 1
EndSplineSet
Validated: 1
EndChar

StartChar: u
Encoding: 117 117 86
Width: 600
Flags: W
HStem: -16 41<208.328 353.023> 0 41<489 545.542> 376 41<127.425 204 421.427 519>
VStem: 145 43<45.9507 145.966>
LayerCount: 2
Fore
SplineSet
439 0 m 1x70
 453 66 l 1
 387 11 320 -16 253 -16 c 0
 187 -16 145 22 145 82 c 0
 145 93 146 104 149 115 c 2
 204 376 l 1
 150 376 l 2
 134 376 127 381 127 392 c 0
 127 408 139 417 159 417 c 2
 254 417 l 1
 190 115 l 2
 188 109 188 105 188 97 c 0
 188 55 218 25 261 25 c 0xb0
 329 25 395 54 464 115 c 1
 519 376 l 1
 445 376 l 2
 428 376 421 381 421 392 c 0
 421 408 433 417 454 417 c 2
 569 417 l 1
 489 41 l 1
 523 41 l 2x70
 540 41 546 37 546 25 c 0xb0
 546 10 534 0 514 0 c 2
 439 0 l 1x70
EndSplineSet
Validated: 1
EndChar

StartChar: v
Encoding: 118 118 87
Width: 600
Flags: W
HStem: 0 41<302 321> 376 41<114.425 178 223 320.538 448.425 540 582 654.542>
LayerCount: 2
Fore
SplineSet
336 0 m 1
 266 0 l 1
 178 376 l 1
 137 376 l 2
 121 376 114 381 114 392 c 0
 114 408 126 417 146 417 c 2
 297 417 l 2
 315 417 321 413 321 401 c 0
 321 386 309 376 289 376 c 2
 223 376 l 1
 302 41 l 1
 321 41 l 1
 540 376 l 1
 471 376 l 2
 455 376 448 381 448 392 c 0
 448 408 460 417 480 417 c 2
 632 417 l 2
 649 417 655 413 655 401 c 0
 655 386 643 376 623 376 c 2
 582 376 l 1
 336 0 l 1
EndSplineSet
Validated: 1
EndChar

StartChar: w
Encoding: 119 119 88
Width: 600
Flags: W
HStem: 0 21G<159.787 222.197 388.297 450.617> 376 41<114.425 156 195 279.541 489.425 562 604 654.542>
VStem: 160 39<56 376>
LayerCount: 2
Fore
SplineSet
442 0 m 1
 391 0 l 1
 356 259 l 1
 211 0 l 1
 160 0 l 1
 156 376 l 1
 137 376 l 2
 121 376 114 381 114 392 c 0
 114 408 126 417 146 417 c 2
 257 417 l 2
 274 417 280 413 280 401 c 0
 280 386 268 376 248 376 c 2
 195 376 l 1
 199 56 l 1
 339 311 l 1
 391 311 l 1
 425 56 l 1
 562 376 l 1
 512 376 l 2
 496 376 489 381 489 392 c 0
 489 408 501 417 521 417 c 2
 632 417 l 2
 649 417 655 413 655 401 c 0
 655 386 643 376 623 376 c 2
 604 376 l 1
 442 0 l 1
EndSplineSet
Validated: 1
EndChar

StartChar: x
Encoding: 120 120 89
Width: 600
Flags: W
HStem: 0 41<55.4254 96 152 242.541 367.425 463 521 553.542> 376 41<158.425 188 246 323.541 446.425 517 573 610.542>
LayerCount: 2
Fore
SplineSet
375 219 m 1
 521 41 l 1
 531 41 l 2
 548 41 554 37 554 25 c 0
 554 10 541 0 522 0 c 2
 390 0 l 2
 374 0 367 5 367 16 c 0
 367 32 379 41 399 41 c 2
 463 41 l 1
 340 190 l 1
 152 41 l 1
 220 41 l 2
 237 41 243 37 243 25 c 0
 243 10 230 0 211 0 c 2
 78 0 l 2
 62 0 55 5 55 16 c 0
 55 32 67 41 87 41 c 2
 96 41 l 1
 318 219 l 1
 188 376 l 1
 181 376 l 2
 165 376 158 381 158 392 c 0
 158 408 170 417 190 417 c 2
 301 417 l 2
 318 417 324 413 324 401 c 0
 324 386 312 376 292 376 c 2
 246 376 l 1
 352 246 l 1
 517 376 l 1
 469 376 l 2
 453 376 446 381 446 392 c 0
 446 408 458 417 478 417 c 2
 588 417 l 2
 605 417 611 413 611 401 c 0
 611 386 599 376 579 376 c 2
 573 376 l 1
 375 219 l 1
EndSplineSet
Validated: 1
EndChar

StartChar: y
Encoding: 121 121 90
Width: 600
Flags: W
HStem: -186 41<22.4254 180 222 309.538> 376 41<135.425 175 221 304.575 469.332 546 589 633.575>
LayerCount: 2
Fore
SplineSet
282 0 m 1
 175 376 l 1
 159 376 l 2
 142 376 135 381 135 392 c 0
 135 408 147 417 167 417 c 2
 282 417 l 2
 298 417 305 412 305 401 c 0
 305 386 293 376 273 376 c 2
 221 376 l 1
 315 45 l 1
 546 376 l 1
 492 376 l 2
 476 376 469 381 469 393 c 0
 469 407 481 417 501 417 c 2
 611 417 l 2
 627 417 634 412 634 401 c 0
 634 386 622 376 602 376 c 2
 589 376 l 1
 222 -145 l 1
 286 -145 l 2
 304 -145 310 -149 310 -161 c 0
 310 -176 297 -186 278 -186 c 2
 45 -186 l 2
 29 -186 22 -181 22 -170 c 0
 22 -154 34 -145 54 -145 c 2
 180 -145 l 1
 282 0 l 1
EndSplineSet
Validated: 1
EndChar

StartChar: z
Encoding: 122 122 91
Width: 600
Flags: W
HStem: 0 41<180 457> 376 41<245 497>
LayerCount: 2
Fore
SplineSet
563 417 m 1
 555 381 l 1
 180 41 l 1
 457 41 l 1
 469 97 l 2
 473 115 482 124 496 124 c 0
 505 124 512 117 512 109 c 0
 512 106 512 104 511 101 c 2
 510 97 l 1
 489 0 l 1
 115 0 l 1
 123 36 l 1
 497 376 l 1
 245 376 l 1
 233 321 l 2
 229 303 221 294 207 294 c 0
 199 294 191 301 191 309 c 2
 192 321 l 1
 213 417 l 1
 563 417 l 1
EndSplineSet
Validated: 1
EndChar

StartChar: braceleft
Encoding: 123 123 92
Width: 600
Flags: W
HStem: -124 41<325.411 381.665> 219 42<248.385 306.968> 563 41<453.884 527.672>
VStem: 275 41<-74.0304 59.3906> 316 43<70.2031 210.515>
CounterMasks: 1 e0
LayerCount: 2
Fore
SplineSet
428 499 m 2xf0
 392 326 l 2
 383 285 366 262 329 240 c 1
 351 222 359 207 359 184 c 0xe8
 359 177 358 165 355 154 c 2
 319 -19 l 2
 317 -24 316 -28 316 -35 c 0
 316 -61 335 -81 360 -83 c 0
 377 -85 382 -88 382 -100 c 0
 382 -114 369 -124 353 -124 c 0
 308 -124 275 -90 275 -43 c 0xf0
 275 -35 276 -27 278 -19 c 2
 316 154 l 2
 317 159 316 165 316 170 c 0xe8
 316 198 298 217 268 219 c 0
 253 219 248 224 248 235 c 0
 248 250 256 260 275 261 c 0
 311 263 343 289 351 326 c 2
 388 499 l 2
 400 558 453 604 509 604 c 0
 521 604 528 598 528 588 c 0
 528 573 519 565 497 563 c 0
 463 559 436 533 428 499 c 2xf0
EndSplineSet
Validated: 1
EndChar

StartChar: bar
Encoding: 124 124 93
Width: 600
Flags: W
HStem: 584 20G<421.5 432.5>
VStem: 257 185
LayerCount: 2
Fore
SplineSet
442 577 m 2
 299 -97 l 2
 295 -115 286 -124 273 -124 c 0
 264 -124 257 -117 257 -109 c 0
 257 -107 256 -101 257 -97 c 2
 402 577 l 2
 406 594 415 604 428 604 c 0
 437 604 444 597 444 589 c 0
 444 586 444 585 442 577 c 2
EndSplineSet
Validated: 1
EndChar

StartChar: braceright
Encoding: 125 125 94
Width: 600
Flags: W
HStem: -124 41<175.328 249.116> 219 42<394.871 454.531> 563 41<321.335 377.589>
VStem: 344 42<269.977 401.688> 386 42<412.5 555.641>
CounterMasks: 1 e0
LayerCount: 2
Fore
SplineSet
275 -19 m 2xf0
 311 154 l 2
 320 195 337 218 374 240 c 1
 352 258 344 274 344 296 c 0xf0
 344 304 345 315 348 326 c 2
 386 499 l 2
 388 504 386 508 386 515 c 0xe8
 386 541 369 561 344 563 c 0xf0
 327 565 321 568 321 580 c 0
 321 594 334 604 350 604 c 0
 395 604 428 570 428 524 c 0xe8
 428 515 427 507 425 499 c 2
 389 326 l 2
 388 321 386 315 386 311 c 0
 386 282 405 263 435 261 c 0
 450 261 455 256 455 245 c 0
 455 230 445 220 426 219 c 0
 390 217 360 191 352 154 c 2
 315 -19 l 2
 303 -78 250 -124 194 -124 c 0
 182 -124 175 -118 175 -108 c 0
 175 -93 184 -85 206 -83 c 0
 240 -79 267 -53 275 -19 c 2xf0
EndSplineSet
Validated: 1
EndChar

StartChar: asciitilde
Encoding: 126 126 95
Width: 600
Flags: W
HStem: 212 41<400.919 487.883> 307 41<229.935 321.238>
LayerCount: 2
Fore
SplineSet
558 330 m 0
 567 330 575 323 575 315 c 0
 575 306 566 294 541 271 c 0
 498 230 465 212 433 212 c 0
 402 212 383 224 332 277 c 0
 312 297 295 307 278 307 c 0
 251 307 239 299 183 242 c 0
 174 234 168 230 161 230 c 0
 152 230 145 237 145 245 c 0
 145 255 155 267 183 294 c 1
 226 333 254 348 287 348 c 0
 308 348 327 340 349 323 c 1
 372 301 l 2
 376 296 376 296 391 282 c 0
 417 258 425 253 440 253 c 0
 464 253 491 271 524 307 c 0
 544 329 549 330 558 330 c 0
EndSplineSet
Validated: 1
EndChar

StartChar: sterling
Encoding: 163 163 96
Width: 600
Flags: W
HStem: 0 41<90.145 158.755 191 483.918> 273 41<145.146 252 292 432.9> 536 42<349.607 470.78>
VStem: 245 41<315.679 470.479> 252 40<177.278 273 314 393.105 394.748 480.289> 499 40<56.9531 114.579>
LayerCount: 2
Fore
SplineSet
191 41 m 1xec
 443 41 l 2
 468 41 490 59 499 92 c 0
 504 108 511 115 524 115 c 0
 536 115 542 106 539 93 c 0
 528 42 482 0 436 0 c 2
 113 0 l 2
 95 0 87 7 90 21 c 0
 93 32 102 40 117 40 c 0
 164 42 225 127 245 220 c 0xf4
 248 237 252 260 252 273 c 1
 168 273 l 2
 150 273 143 280 145 294 c 1
 148 307 159 314 177 314 c 2
 252 314 l 1xec
 248 350 245 375 245 394 c 0
 245 410 247 423 249 434 c 0
 266 515 343 578 422 578 c 0
 457 578 487 566 511 539 c 0
 524 524 532 508 532 498 c 0
 532 497 532 496 532 495 c 0
 530 485 517 476 508 476 c 0
 501 476 498 479 494 488 c 1
 471 522 448 536 413 536 c 0
 359 536 302 490 290 434 c 0
 288 423 286 414 286 400 c 0xf4
 286 385 288 364 291 328 c 0
 291 326 291 322 292 314 c 1
 410 314 l 2
 426 314 434 309 434 298 c 0
 434 296 433 294 433 292 c 0
 431 280 420 273 401 273 c 2
 292 273 l 1
 291 252 289 234 285 216 c 0
 270 148 236 87 191 41 c 1xec
EndSplineSet
Validated: 1
EndChar

StartChar: uni0591
Encoding: 1425 1425 97
Width: 600
Flags: W
HStem: -242 182
VStem: 162 41<-241.486 -188.987> 304 42<-241.097 -177.009>
LayerCount: 2
Fore
SplineSet
292 -133 m 1
 325 -141 346 -168 346 -203 c 0
 346 -209 345 -215 344 -222 c 0
 342 -233 330 -242 319 -242 c 0
 308 -242 302 -233 304 -222 c 0
 305 -218 304 -215 304 -211 c 0
 304 -189 287 -172 264 -172 c 0
 236 -172 209 -194 203 -222 c 0
 200 -233 189 -242 178 -242 c 0
 167 -242 159 -233 162 -222 c 0
 171 -178 209 -142 251 -133 c 1
 262 -80 l 2
 265 -69 276 -60 287 -60 c 0
 299 -60 307 -69 304 -80 c 2
 292 -133 l 1
EndSplineSet
Validated: 1
EndChar

StartChar: uni0592
Encoding: 1426 1426 98
Width: 600
Flags: W
HStem: 540 59<334.747 389.292 452.144 506.691> 658 58<418.487 472.691>
VStem: 332 61<543.846 595.699> 416 60<661.503 686.906> 449 61<543.503 595.119>
LayerCount: 2
Fore
SplineSet
440 658 m 0xf0
 426 658 416 668 416 680 c 0
 416 683 415 685 416 687 c 0
 419 703 436 716 452 716 c 0
 466 716 476 707 476 694 c 0
 476 692 476 689 475 687 c 0
 472 671 456 658 440 658 c 0xf0
356 540 m 0
 342 540 332 551 332 563 c 0
 332 566 331 567 332 569 c 1
 335 586 352 599 368 599 c 0
 383 599 393 589 393 575 c 0
 393 573 392 571 392 569 c 1
 388 553 372 540 356 540 c 0
474 540 m 0
 459 540 449 550 449 563 c 0
 449 565 449 567 449 569 c 0
 453 586 470 599 486 599 c 0
 500 599 510 589 510 576 c 0xe8
 510 574 510 571 509 569 c 0
 506 553 490 540 474 540 c 0
EndSplineSet
Validated: 1
EndChar

StartChar: uni0593
Encoding: 1427 1427 99
Width: 600
Flags: W
HStem: 540 28<402.307 416>
LayerCount: 2
Fore
SplineSet
514 569 m 2
 419 540 l 2
 411 537 403 542 402 549 c 0
 401 557 407 566 416 568 c 2
 458 582 l 1
 338 613 l 1
 322 619 325 637 344 642 c 2
 469 672 l 1
 357 701 l 1
 339 707 343 724 363 731 c 1
 496 762 l 1
 460 775 l 2
 453 778 450 786 454 794 c 0
 459 802 468 806 475 804 c 2
 557 774 l 1
 573 765 570 751 550 746 c 2
 426 716 l 1
 538 686 l 2
 556 681 551 662 531 657 c 2
 407 628 l 1
 519 598 l 1
 538 591 530 574 514 569 c 2
EndSplineSet
Validated: 1
EndChar

StartChar: uni0594
Encoding: 1428 1428 100
Width: 600
Flags: W
HStem: 540 59<393.711 447.699> 658 58<418.487 472.691>
VStem: 391 60<542.917 595.699> 416 60<661.503 686.906>
LayerCount: 2
Fore
SplineSet
427 599 m 0xe0
 441 599 451 590 451 576 c 0xe0
 451 574 451 572 450 569 c 0
 447 553 432 540 416 540 c 0xd0
 402 540 391 551 391 563 c 0
 391 566 390 567 391 569 c 1
 394 586 411 599 427 599 c 0xe0
452 716 m 0
 466 716 476 707 476 694 c 0
 476 692 476 689 475 687 c 0
 472 671 456 658 440 658 c 0
 426 658 416 668 416 680 c 0
 416 683 415 685 416 687 c 0xd0
 419 703 436 716 452 716 c 0
EndSplineSet
Validated: 1
EndChar

StartChar: uni0595
Encoding: 1429 1429 101
Width: 600
Flags: W
HStem: 540 59<441.711 495.699> 658 58<466.487 520.691>
VStem: 439 60<542.917 595.699> 464 60<661.503 686.906>
LayerCount: 2
Fore
SplineSet
342 560 m 2xc0
 370 696 l 2
 373 707 384 716 395 716 c 0
 407 716 414 707 411 696 c 2
 383 560 l 2
 380 549 369 540 358 540 c 0
 347 540 339 549 342 560 c 2xc0
475 599 m 0
 489 599 499 590 499 576 c 0xe0
 499 574 499 572 498 569 c 0
 495 553 480 540 464 540 c 0xd0
 450 540 439 551 439 563 c 0
 439 566 438 567 439 569 c 1xe0
 442 586 459 599 475 599 c 0
500 716 m 0
 514 716 524 707 524 694 c 0
 524 692 524 689 523 687 c 0
 520 671 504 658 488 658 c 0
 474 658 464 668 464 680 c 0
 464 683 463 685 464 687 c 0xd0
 467 703 484 716 500 716 c 0
EndSplineSet
Validated: 1
EndChar

StartChar: uni0596
Encoding: 1430 1430 102
Width: 600
Flags: W
VStem: 221 42<-198.208 -62.1965>
LayerCount: 2
Fore
SplineSet
268 -80 m 0
 265 -95 263 -109 263 -123 c 0
 263 -162 276 -195 302 -223 c 0
 309 -231 307 -244 297 -252 c 1
 288 -261 275 -262 268 -254 c 0
 237 -221 221 -179 221 -132 c 0
 221 -115 223 -98 227 -80 c 0
 229 -69 240 -60 252 -60 c 0
 263 -60 270 -69 268 -80 c 0
EndSplineSet
Validated: 1
EndChar

StartChar: uni0597
Encoding: 1431 1431 103
Width: 600
Flags: W
HStem: 540 141
VStem: 359 141
LayerCount: 2
Fore
SplineSet
415 540 m 1
 359 611 l 1
 445 681 l 1
 500 611 l 1
 415 540 l 1
EndSplineSet
Validated: 1
EndChar

StartChar: uni0598
Encoding: 1432 1432 104
Width: 600
Flags: W
HStem: 540 35<327.69 364.792 465.485 524.244> 634 35<334.221 391.519 492.099 528.042>
VStem: 292 35<576.743 625.989> 530 35<581.733 632.031>
LayerCount: 2
Fore
SplineSet
473 584 m 1
 478 578 484 575 493 575 c 0
 509 575 526 587 530 604 c 0
 530 606 530 608 530 610 c 0
 530 623 520 634 505 634 c 0
 496 634 490 642 492 652 c 0
 494 661 503 669 513 669 c 0
 544 669 565 646 565 616 c 0
 565 612 565 608 564 604 c 0
 556 568 521 540 485 540 c 0
 468 540 455 547 444 559 c 1
 383 626 l 1
 378 632 373 634 364 634 c 0
 348 634 332 620 328 604 c 1
 328 602 327 600 327 598 c 0
 327 584 337 575 352 575 c 0
 361 575 367 567 365 558 c 0
 363 548 354 540 344 540 c 0
 313 540 292 562 292 591 c 0
 292 595 291 600 292 604 c 1
 300 639 336 669 372 669 c 0
 389 669 404 662 413 651 c 2
 473 584 l 1
EndSplineSet
Validated: 1
EndChar

StartChar: uni0599
Encoding: 1433 1433 105
Width: 600
Flags: W
VStem: 439 42<542.196 678.305>
LayerCount: 2
Fore
SplineSet
434 560 m 0
 437 575 439 590 439 604 c 0
 439 643 426 675 400 703 c 1
 394 711 395 724 405 732 c 1
 414 741 427 742 434 734 c 0
 465 701 481 659 481 612 c 0
 481 595 479 578 475 560 c 0
 473 549 462 540 450 540 c 0
 439 540 432 549 434 560 c 0
EndSplineSet
Validated: 1
EndChar

StartChar: uni059A
Encoding: 1434 1434 106
Width: 600
Flags: W
HStem: -240 180
VStem: 176 200
LayerCount: 2
Fore
SplineSet
244 -149 m 1
 337 -201 l 2
 346 -206 348 -219 341 -229 c 0
 335 -236 327 -240 320 -240 c 0
 317 -240 314 -241 311 -240 c 2
 185 -167 l 2
 179 -164 176 -159 176 -153 c 0
 176 -145 182 -136 193 -131 c 2
 349 -60 l 2
 360 -55 372 -59 375 -69 c 0
 375 -71 376 -72 376 -74 c 0
 376 -83 369 -93 360 -97 c 2
 244 -149 l 1
EndSplineSet
Validated: 1
EndChar

StartChar: uni059B
Encoding: 1435 1435 107
Width: 600
Flags: W
HStem: -119 59<194.487 248.367>
VStem: 192 60<-115.466 -89.1399> 330 41<-135.95 -60.5145>
LayerCount: 2
Fore
SplineSet
228 -60 m 0
 242 -60 252 -70 252 -82 c 0
 252 -85 252 -87 251 -89 c 1
 248 -106 232 -119 216 -119 c 0
 202 -119 192 -110 192 -96 c 0
 192 -94 191 -92 192 -89 c 0
 195 -73 212 -60 228 -60 c 0
330 -80 m 0
 333 -69 344 -60 355 -60 c 0
 366 -60 374 -69 371 -80 c 0
 357 -149 317 -209 256 -254 c 0
 246 -262 234 -261 228 -252 c 0
 222 -244 226 -231 236 -223 c 0
 287 -185 318 -138 330 -80 c 0
EndSplineSet
Validated: 1
EndChar

StartChar: uni059C
Encoding: 1436 1436 108
Width: 600
Flags: W
VStem: 363 41<540.514 615.95>
LayerCount: 2
Fore
SplineSet
404 560 m 0
 402 549 391 540 379 540 c 0
 368 540 361 549 363 560 c 0
 378 629 417 689 478 734 c 0
 488 742 501 741 507 732 c 0
 512 724 509 711 499 703 c 0
 448 665 416 618 404 560 c 0
EndSplineSet
Validated: 1
EndChar

StartChar: uni059D
Encoding: 1437 1437 109
Width: 600
Flags: W
VStem: 363 41<540.514 615.95>
LayerCount: 2
Fore
SplineSet
404 560 m 0
 402 549 391 540 379 540 c 0
 368 540 361 549 363 560 c 0
 378 629 417 689 478 734 c 0
 488 742 501 741 507 732 c 0
 512 724 509 711 499 703 c 0
 448 665 416 618 404 560 c 0
EndSplineSet
Validated: 1
EndChar

StartChar: uni059E
Encoding: 1438 1438 110
Width: 600
Flags: W
VStem: 296 41<540.514 615.95> 431 41<540.514 615.95>
LayerCount: 2
Fore
SplineSet
472 560 m 0
 469 549 458 540 447 540 c 0
 435 540 428 549 431 560 c 0
 445 629 485 689 545 734 c 0
 556 742 568 741 574 732 c 0
 580 724 576 711 566 703 c 0
 515 665 484 618 472 560 c 0
337 560 m 0
 334 549 323 540 312 540 c 0
 300 540 293 549 296 560 c 0
 310 629 350 689 410 734 c 0
 421 742 433 741 439 732 c 0
 445 724 441 711 431 703 c 0
 380 665 349 618 337 560 c 0
EndSplineSet
Validated: 1
EndChar

StartChar: uni059F
Encoding: 1439 1439 111
Width: 600
Flags: W
HStem: 569 35<262.643 327.795 535.294 601.828> 687 35<272.697 339.283 545.877 612.298>
VStem: 222 36<608.501 672.142> 343 36<617.317 682.976> 496 35<608.214 672.142> 616 36<617.571 682.976>
LayerCount: 2
Fore
SplineSet
583 687 m 0
 560 687 537 668 532 646 c 1
 532 643 531 641 531 638 c 0
 531 619 545 604 565 604 c 0
 588 604 611 623 616 646 c 0
 617 649 616 652 616 654 c 0
 616 673 602 687 583 687 c 0
309 687 m 0
 287 687 264 668 259 646 c 1
 259 643 258 641 258 638 c 0
 258 619 272 604 292 604 c 0
 315 604 338 623 343 646 c 0
 344 649 343 652 343 654 c 0
 343 673 329 687 309 687 c 0
357 604 m 1
 385 569 l 2
 391 562 388 552 380 545 c 0
 372 538 361 538 355 545 c 2
 327 581 l 1
 314 573 299 569 284 569 c 0
 247 569 222 595 222 630 c 0
 222 635 221 640 222 646 c 0
 231 688 275 722 317 722 c 0
 354 722 379 696 379 662 c 0
 379 657 378 651 377 646 c 0
 374 631 367 616 357 604 c 1
520 581 m 1
 477 545 l 2
 468 538 457 538 452 545 c 0
 446 552 449 562 457 569 c 2
 500 604 l 1
 497 612 496 621 496 631 c 0
 496 636 495 641 496 646 c 0
 505 688 548 722 590 722 c 0
 627 722 652 696 652 662 c 0
 652 657 651 651 650 646 c 0
 641 603 600 569 558 569 c 0
 543 569 530 573 520 581 c 1
EndSplineSet
Validated: 1
EndChar

StartChar: uni05A0
Encoding: 1440 1440 112
Width: 600
Flags: W
HStem: 569 35<413.487 479.828> 687 35<423.982 490.571>
VStem: 374 36<607.42 673.312> 494 36<617.571 682.976>
LayerCount: 2
Fore
SplineSet
461 687 m 0
 438 687 415 668 411 646 c 0
 410 643 410 640 410 637 c 0
 410 618 423 604 443 604 c 0
 466 604 489 623 494 646 c 0
 495 649 494 652 494 655 c 0
 494 673 481 687 461 687 c 0
398 581 m 1
 355 545 l 2
 346 538 335 538 330 545 c 0
 325 552 327 562 335 569 c 2
 378 604 l 1
 376 611 374 620 374 629 c 0
 374 635 372 640 374 646 c 0
 383 688 426 722 468 722 c 0
 505 722 530 696 530 662 c 0
 530 657 529 651 528 646 c 0
 519 603 478 569 436 569 c 0
 421 569 408 573 398 581 c 1
EndSplineSet
Validated: 1
EndChar

StartChar: uni05A1
Encoding: 1441 1441 113
Width: 600
Flags: W
HStem: 610 41<386 459.506>
LayerCount: 2
Fore
SplineSet
386 651 m 1
 388 651 389 651 391 651 c 0
 435 651 476 673 506 712 c 0
 513 721 527 725 535 720 c 0
 544 714 545 702 538 692 c 0
 499 640 440 610 382 610 c 0
 380 610 379 610 378 610 c 2
 367 560 l 2
 365 549 354 540 342 540 c 0
 331 540 324 549 326 560 c 2
 356 702 l 2
 358 713 370 722 381 722 c 0
 392 722 399 713 397 702 c 2
 386 651 l 1
EndSplineSet
Validated: 1
EndChar

StartChar: uni05A3
Encoding: 1443 1443 114
Width: 600
Flags: W
HStem: -200 41<163.218 324>
VStem: 163 218
LayerCount: 2
Fore
SplineSet
321 -200 m 2
 179 -200 l 2
 168 -200 161 -191 163 -180 c 0
 166 -168 177 -159 188 -159 c 2
 324 -159 l 1
 340 -80 l 2
 343 -69 354 -60 365 -60 c 0
 377 -60 384 -69 381 -80 c 2
 363 -165 l 2
 359 -184 340 -200 321 -200 c 2
EndSplineSet
Validated: 1
EndChar

StartChar: uni05A4
Encoding: 1444 1444 115
Width: 600
Flags: W
HStem: -240 180
VStem: 176 200
LayerCount: 2
Fore
SplineSet
244 -149 m 1
 337 -201 l 2
 346 -206 348 -219 341 -229 c 0
 335 -236 327 -240 320 -240 c 0
 317 -240 314 -241 311 -240 c 2
 185 -167 l 2
 179 -164 176 -159 176 -153 c 0
 176 -145 182 -136 193 -131 c 2
 349 -60 l 2
 360 -55 372 -59 375 -69 c 0
 375 -71 376 -72 376 -74 c 0
 376 -83 369 -93 360 -97 c 2
 244 -149 l 1
EndSplineSet
Validated: 1
EndChar

StartChar: uni05A5
Encoding: 1445 1445 116
Width: 600
Flags: W
VStem: 298 41<-135.95 -60.5145>
LayerCount: 2
Fore
SplineSet
298 -80 m 0
 300 -69 311 -60 323 -60 c 0
 334 -60 341 -69 339 -80 c 0
 325 -149 285 -209 224 -254 c 0
 214 -262 201 -261 195 -252 c 0
 190 -244 193 -231 203 -223 c 0
 254 -185 286 -138 298 -80 c 0
EndSplineSet
Validated: 1
EndChar

StartChar: uni05A6
Encoding: 1446 1446 117
Width: 600
Flags: W
VStem: 230 41<-135.95 -60.5145> 365 41<-135.95 -60.5145>
LayerCount: 2
Fore
SplineSet
230 -80 m 0
 233 -69 244 -60 255 -60 c 0
 267 -60 274 -69 271 -80 c 0
 257 -149 217 -209 157 -254 c 0
 146 -262 134 -261 128 -252 c 0
 122 -244 126 -231 136 -223 c 0
 187 -185 218 -138 230 -80 c 0
365 -80 m 0
 368 -69 379 -60 390 -60 c 0
 402 -60 409 -69 406 -80 c 0
 392 -149 352 -209 292 -254 c 0
 282 -262 269 -261 263 -252 c 0
 257 -244 261 -231 271 -223 c 0
 322 -185 353 -138 365 -80 c 0
EndSplineSet
Validated: 1
EndChar

StartChar: uni05A7
Encoding: 1447 1447 118
Width: 600
Flags: W
HStem: -242 41<138.218 266> -101 41<270 397.764>
VStem: 138 260
LayerCount: 2
Fore
SplineSet
296 -242 m 1
 154 -242 l 2
 143 -242 136 -233 138 -222 c 0
 141 -210 152 -201 163 -201 c 2
 266 -201 l 1
 216 -92 l 1
 215 -86 214 -81 214 -77 c 0
 214 -66 220 -64 240 -60 c 1
 381 -60 l 2
 393 -60 400 -69 398 -80 c 0
 395 -92 384 -101 373 -101 c 2
 270 -101 l 1
 319 -210 l 1
 320 -217 321 -222 321 -226 c 0
 321 -236 315 -238 296 -242 c 1
EndSplineSet
Validated: 1
EndChar

StartChar: uni05A8
Encoding: 1448 1448 119
Width: 600
Flags: W
VStem: 439 42<542.196 678.305>
LayerCount: 2
Fore
SplineSet
434 560 m 0
 437 575 439 590 439 604 c 0
 439 643 426 675 400 703 c 1
 394 711 395 724 405 732 c 1
 414 741 427 742 434 734 c 0
 465 701 481 659 481 612 c 0
 481 595 479 578 475 560 c 0
 473 549 462 540 450 540 c 0
 439 540 432 549 434 560 c 0
EndSplineSet
Validated: 1
EndChar

StartChar: uni05A9
Encoding: 1449 1449 120
Width: 600
Flags: W
HStem: 569 35<383.717 449.476> 687 35<394.697 458.82>
VStem: 344 36<608.501 672.142>
LayerCount: 2
Fore
SplineSet
431 687 m 0
 409 687 386 668 381 646 c 0
 380 643 380 640 380 637 c 0
 380 618 394 604 414 604 c 0
 437 604 459 623 464 646 c 0
 465 649 466 652 465 654 c 0
 458 678 451 687 431 687 c 0
449 581 m 1
 436 573 421 569 406 569 c 0
 369 569 344 595 344 630 c 0
 344 635 343 640 344 646 c 0
 353 688 397 722 439 722 c 0
 476 722 501 696 501 662 c 0
 501 657 500 651 499 646 c 0
 496 631 489 616 479 604 c 1
 507 569 l 2
 512 562 510 552 502 545 c 0
 493 538 482 538 477 545 c 2
 449 581 l 1
EndSplineSet
Validated: 1
EndChar

StartChar: uni05AA
Encoding: 1450 1450 121
Width: 600
Flags: W
HStem: -242 182
VStem: 190 42<-126.355 -60.7621> 333 41<-113.013 -60.5145>
LayerCount: 2
Fore
SplineSet
285 -169 m 1
 273 -222 l 2
 271 -233 260 -242 249 -242 c 0
 237 -242 230 -233 232 -222 c 2
 244 -169 l 1
 211 -161 190 -134 190 -99 c 0
 190 -93 189 -87 190 -80 c 0
 192 -69 205 -60 217 -60 c 0
 228 -60 235 -69 233 -80 c 0
 232 -84 232 -87 232 -91 c 0
 232 -114 249 -131 272 -131 c 0
 300 -131 327 -108 333 -80 c 0
 335 -69 347 -60 358 -60 c 0
 369 -60 376 -69 374 -80 c 0
 365 -124 327 -160 285 -169 c 1
EndSplineSet
Validated: 1
EndChar

StartChar: uni05AB
Encoding: 1451 1451 122
Width: 600
Flags: W
HStem: 540 178
VStem: 342 199
LayerCount: 2
Fore
SplineSet
409 629 m 1
 503 577 l 2
 512 572 513 559 506 549 c 0
 499 539 486 535 477 540 c 2
 350 611 l 2
 344 614 342 619 342 625 c 0
 342 633 348 642 358 647 c 2
 514 718 l 2
 526 723 537 719 540 709 c 0
 540 707 541 706 541 704 c 0
 541 695 534 685 525 681 c 2
 409 629 l 1
EndSplineSet
Validated: 1
EndChar

StartChar: uni05AC
Encoding: 1452 1452 123
Width: 600
Flags: W
HStem: 540 41<321.1 481>
VStem: 321 218
LayerCount: 2
Fore
SplineSet
478 540 m 2
 337 540 l 2
 325 540 318 549 321 560 c 1
 323 572 334 581 345 581 c 2
 481 581 l 1
 498 660 l 2
 500 671 511 680 523 680 c 0
 534 680 541 671 539 660 c 2
 521 575 l 2
 517 556 498 540 478 540 c 2
EndSplineSet
Validated: 1
EndChar

StartChar: uni05AD
Encoding: 1453 1453 124
Width: 600
Flags: W
VStem: 221 42<-198.208 -62.1965>
LayerCount: 2
Fore
SplineSet
268 -80 m 0
 265 -95 263 -109 263 -123 c 0
 263 -162 276 -195 302 -223 c 0
 309 -231 307 -244 297 -252 c 1
 288 -261 275 -262 268 -254 c 0
 237 -221 221 -179 221 -132 c 0
 221 -115 223 -98 227 -80 c 0
 229 -69 240 -60 252 -60 c 0
 263 -60 270 -69 268 -80 c 0
EndSplineSet
Validated: 1
EndChar

StartChar: uni05AE
Encoding: 1454 1454 125
Width: 600
Flags: W
HStem: 540 35<327.69 364.792 465.485 524.244> 634 35<334.221 391.519 492.099 528.042>
VStem: 292 35<576.743 625.989> 530 35<581.733 632.031>
LayerCount: 2
Fore
SplineSet
473 584 m 1
 478 578 484 575 493 575 c 0
 509 575 526 587 530 604 c 0
 530 606 530 608 530 610 c 0
 530 623 520 634 505 634 c 0
 496 634 490 642 492 652 c 0
 494 661 503 669 513 669 c 0
 544 669 565 646 565 616 c 0
 565 612 565 608 564 604 c 0
 556 568 521 540 485 540 c 0
 468 540 455 547 444 559 c 1
 383 626 l 1
 378 632 373 634 364 634 c 0
 348 634 332 620 328 604 c 1
 328 602 327 600 327 598 c 0
 327 584 337 575 352 575 c 0
 361 575 367 567 365 558 c 0
 363 548 354 540 344 540 c 0
 313 540 292 562 292 591 c 0
 292 595 291 600 292 604 c 1
 300 639 336 669 372 669 c 0
 389 669 404 662 413 651 c 2
 473 584 l 1
EndSplineSet
Validated: 1
EndChar

StartChar: uni05AF
Encoding: 1455 1455 126
Width: 600
Flags: W
HStem: 540 35<386.925 465.425> 681 35<402.768 480.075>
VStem: 343 36<583.78 658.417> 488 36<597.583 672.22>
LayerCount: 2
Fore
SplineSet
452 716 m 0
 495 716 524 686 524 646 c 0
 524 640 523 634 522 628 c 0
 511 579 463 540 415 540 c 0
 372 540 343 570 343 610 c 0
 343 616 342 622 343 628 c 0
 354 677 404 716 452 716 c 0
445 681 m 0
 416 681 387 657 380 628 c 0
 379 624 379 621 379 617 c 0
 379 593 397 575 422 575 c 0
 452 575 481 599 488 628 c 0
 489 632 488 635 488 639 c 0
 488 663 470 681 445 681 c 0
EndSplineSet
Validated: 1
EndChar

StartChar: afii57799
Encoding: 1456 1456 127
Width: 0
Flags: W
HStem: -237 59<-71.5676 -17.9081> -119 59<-46.5129 7.01342>
VStem: -74 85
AnchorPoint: "M2V" -70 0 basemark 0
AnchorPoint: "N" 0 0 mark 0
LayerCount: 2
Fore
SplineSet
-38 -178 m 0
 -24 -178 -14 -188 -14 -201 c 0
 -14 -203 -15 -205 -15 -207 c 0
 -19 -224 -33 -237 -49 -237 c 0
 -63 -237 -74 -227 -74 -214 c 0
 -74 -212 -75 -209 -74 -207 c 0
 -71 -191 -54 -178 -38 -178 c 0
-13 -60 m 0
 1 -60 11 -70 11 -83 c 0
 11 -85 10 -87 10 -89 c 0
 6 -106 -9 -119 -25 -119 c 0
 -39 -119 -49 -109 -49 -96 c 0
 -49 -94 -50 -91 -49 -89 c 0
 -46 -73 -29 -60 -13 -60 c 0
EndSplineSet
Validated: 1
EndChar

StartChar: afii57801
Encoding: 1457 1457 128
Width: 0
Flags: W
HStem: -236 58<-129.691 -75.4871 46.3418 100.691> -119 59<-164.513 -109.992 -46.5129 7.01343 70.5132 125.013>
VStem: -167 296
AnchorPoint: "VR" -39.8936 0.5 mark 0
AnchorPoint: "M2V" -187 0 basemark 0
AnchorPoint: "H" 0 0 mark 0
LayerCount: 2
Fore
SplineSet
-97 -178 m 0
 -83 -178 -73 -188 -73 -202 c 0
 -73 -203 -73 -205 -73 -207 c 0
 -76 -223 -93 -236 -109 -236 c 0
 -123 -236 -133 -226 -133 -213 c 0
 -133 -211 -132 -209 -132 -207 c 0
 -129 -191 -113 -178 -97 -178 c 0
-131 -60 m 0
 -116 -60 -106 -70 -106 -83 c 0
 -106 -85 -107 -87 -107 -89 c 0
 -111 -106 -126 -119 -143 -119 c 0
 -157 -119 -167 -109 -167 -96 c 0
 -167 -94 -168 -91 -167 -89 c 0
 -164 -73 -147 -60 -131 -60 c 0
80 -178 m 0
 94 -178 104 -188 104 -201 c 0
 104 -203 103 -205 103 -207 c 0
 100 -223 84 -236 68 -236 c 0
 53 -236 43 -226 43 -213 c 0
 43 -211 44 -209 44 -207 c 0
 47 -191 63 -178 80 -178 c 0
105 -60 m 0
 119 -60 129 -70 129 -83 c 0
 129 -85 128 -87 128 -89 c 0
 124 -106 109 -119 93 -119 c 0
 78 -119 68 -109 68 -96 c 0
 68 -94 67 -91 68 -89 c 0
 71 -73 88 -60 105 -60 c 0
-13 -60 m 0
 1 -60 11 -70 11 -83 c 0
 11 -85 10 -87 10 -89 c 0
 6 -106 -9 -119 -25 -119 c 0
 -39 -119 -49 -109 -49 -96 c 0
 -49 -94 -50 -91 -49 -89 c 0
 -46 -73 -29 -60 -13 -60 c 0
EndSplineSet
Validated: 1
EndChar

StartChar: afii57800
Encoding: 1458 1458 129
Width: 0
Flags: W
HStem: -236 58<46.3418 100.691> -119 59<70.5132 125.013> -101 41<-163.9 11.7637>
VStem: -164 293
AnchorPoint: "VR" -40 0 mark 0
AnchorPoint: "M2V" -187 0 basemark 0
AnchorPoint: "H" 0 0 mark 0
LayerCount: 2
Fore
SplineSet
-139 -60 m 2xb0
 -5 -60 l 2
 7 -60 14 -69 12 -80 c 0
 9 -92 -1 -101 -13 -101 c 2
 -147 -101 l 2
 -159 -101 -167 -92 -164 -80 c 0
 -162 -69 -151 -60 -139 -60 c 2xb0
80 -178 m 0
 94 -178 104 -188 104 -201 c 0
 104 -203 103 -205 103 -207 c 0
 100 -223 84 -236 68 -236 c 0
 53 -236 43 -226 43 -213 c 0
 43 -211 44 -209 44 -207 c 0
 47 -191 63 -178 80 -178 c 0
105 -60 m 0xd0
 119 -60 129 -70 129 -83 c 0
 129 -85 128 -87 128 -89 c 0
 124 -106 109 -119 93 -119 c 0
 78 -119 68 -109 68 -96 c 0
 68 -94 67 -91 68 -89 c 0
 71 -73 88 -60 105 -60 c 0xd0
EndSplineSet
Validated: 1
EndChar

StartChar: afii57802
Encoding: 1459 1459 130
Width: 0
Flags: W
HStem: -236 58<46.4871 101.513> -119 59<70.44 125.935> -101 41<-164.899 -101 -61 12.8355>
VStem: -165 294
AnchorPoint: "VR" -40 0 mark 0
AnchorPoint: "M2V" -188 0 basemark 0
AnchorPoint: "H" 0 0 mark 0
LayerCount: 2
Fore
SplineSet
-101 -101 m 1xb0
 -147 -101 l 2
 -159 -101 -168 -92 -165 -80 c 0
 -163 -69 -151 -60 -139 -60 c 2
 -5 -60 l 2
 7 -60 15 -69 13 -80 c 0
 10 -92 -1 -101 -13 -101 c 2
 -61 -101 l 1
 -83 -200 l 2
 -85 -211 -95 -220 -107 -220 c 0
 -119 -220 -125 -211 -123 -200 c 2
 -101 -101 l 1xb0
80 -178 m 0
 94 -178 104 -188 104 -202 c 0
 104 -203 104 -205 104 -207 c 0
 101 -223 84 -236 68 -236 c 0
 54 -236 44 -226 44 -212 c 0
 44 -211 44 -209 44 -207 c 0
 47 -191 64 -178 80 -178 c 0
105 -60 m 0xd0
 119 -60 129 -70 129 -84 c 0
 129 -85 129 -87 129 -89 c 0
 125 -106 109 -119 93 -119 c 0
 79 -119 68 -109 68 -95 c 0
 68 -93 67 -91 68 -89 c 0
 71 -73 89 -60 105 -60 c 0xd0
EndSplineSet
Validated: 1
EndChar

StartChar: afii57793
Encoding: 1460 1460 131
Width: 0
Flags: W
HStem: -119 59<-46.5129 7.01342>
VStem: -49 60
AnchorPoint: "J1" 150 0 mark 0
AnchorPoint: "M2V" -69 0 basemark 0
AnchorPoint: "N" 0 0 mark 0
LayerCount: 2
Fore
SplineSet
-13 -60 m 0
 1 -60 11 -70 11 -83 c 0
 11 -85 10 -87 10 -89 c 0
 6 -106 -9 -119 -25 -119 c 0
 -39 -119 -49 -109 -49 -96 c 0
 -49 -94 -50 -91 -49 -89 c 0
 -46 -73 -29 -60 -13 -60 c 0
EndSplineSet
Validated: 1
EndChar

StartChar: afii57794
Encoding: 1461 1461 132
Width: 0
Flags: W
HStem: -119 59<-105.513 -51.065 11.44 66.0134>
VStem: -108 178
AnchorPoint: "VR" -40 0 mark 0
AnchorPoint: "M2V" -128 0 basemark 0
AnchorPoint: "W" 0 0 mark 0
LayerCount: 2
Fore
SplineSet
-72 -60 m 0
 -58 -60 -48 -70 -48 -84 c 0
 -48 -85 -48 -87 -48 -89 c 0
 -52 -106 -68 -119 -84 -119 c 0
 -98 -119 -108 -109 -108 -96 c 0
 -108 -94 -109 -91 -108 -89 c 0
 -105 -73 -88 -60 -72 -60 c 0
46 -60 m 0
 60 -60 70 -70 70 -83 c 0
 70 -85 69 -87 69 -89 c 0
 65 -106 50 -119 34 -119 c 0
 20 -119 9 -109 9 -95 c 0
 9 -93 8 -91 9 -89 c 0
 12 -73 30 -60 46 -60 c 0
EndSplineSet
Validated: 1
EndChar

StartChar: afii57795
Encoding: 1462 1462 133
Width: 0
Flags: W
HStem: -236 58<-70.6912 -17.3088> -119 59<-105.513 -51.065 11.44 66.0134>
VStem: -108 178
AnchorPoint: "VR" -40 0 mark 0
AnchorPoint: "M2V" -128 0 basemark 0
AnchorPoint: "W" 0 0 mark 0
LayerCount: 2
Fore
SplineSet
-38 -178 m 0
 -24 -178 -14 -188 -14 -201 c 0
 -14 -203 -15 -205 -15 -207 c 0
 -18 -223 -34 -236 -50 -236 c 0
 -64 -236 -74 -226 -74 -213 c 0
 -74 -211 -73 -209 -73 -207 c 0
 -70 -191 -54 -178 -38 -178 c 0
-72 -60 m 0
 -58 -60 -48 -70 -48 -84 c 0
 -48 -85 -48 -87 -48 -89 c 0
 -52 -106 -68 -119 -84 -119 c 0
 -98 -119 -108 -109 -108 -96 c 0
 -108 -94 -109 -91 -108 -89 c 0
 -105 -73 -88 -60 -72 -60 c 0
46 -60 m 0
 60 -60 70 -70 70 -83 c 0
 70 -85 69 -87 69 -89 c 0
 65 -106 50 -119 34 -119 c 0
 20 -119 9 -109 9 -95 c 0
 9 -93 8 -91 9 -89 c 0
 12 -73 30 -60 46 -60 c 0
EndSplineSet
Validated: 1
EndChar

StartChar: afii57798
Encoding: 1463 1463 134
Width: 0
Flags: W
HStem: -101 41<-104.899 70.7824>
VStem: -105 176
AnchorPoint: "VR" -40 0 mark 0
AnchorPoint: "M2V" -128 0 basemark 0
AnchorPoint: "W" 0 0 mark 0
LayerCount: 2
Fore
SplineSet
-80 -60 m 2
 55 -60 l 2
 66 -60 73 -69 71 -80 c 0
 68 -92 58 -101 47 -101 c 2
 -88 -101 l 2
 -99 -101 -108 -92 -105 -80 c 0
 -103 -69 -91 -60 -80 -60 c 2
EndSplineSet
Validated: 1
EndChar

StartChar: afii57797
Encoding: 1464 1464 135
Width: 0
Flags: W
HStem: -101 41<-104.899 -43 0 70.8336>
VStem: -105 176
AnchorPoint: "VR" -40 0 mark 0
AnchorPoint: "M2V" -128 0 basemark 0
AnchorPoint: "W" 0 0 mark 0
LayerCount: 2
Fore
SplineSet
-43 -101 m 1
 -89 -101 l 2
 -99 -101 -108 -92 -105 -80 c 0
 -103 -69 -91 -60 -81 -60 c 2
 55 -60 l 2
 67 -60 73 -69 71 -80 c 0
 68 -92 59 -101 47 -101 c 2
 0 -101 l 1
 -23 -200 l 2
 -25 -211 -37 -220 -47 -220 c 0
 -59 -220 -67 -211 -65 -200 c 2
 -43 -101 l 1
EndSplineSet
Validated: 1
EndChar

StartChar: afii57806
Encoding: 1465 1465 136
Width: 0
Flags: W
HStem: 540 59<93.7466 147.367>
VStem: 91 60<543.534 595.497>
AnchorPoint: "Holam" 0 0 mark 0
LayerCount: 2
Fore
SplineSet
91 570 m 0
 95 586 111 599 127 599 c 0
 141 599 151 589 151 577 c 0
 151 574 151 572 150 570 c 0
 147 553 131 540 115 540 c 0
 101 540 91 549 91 563 c 0
 91 565 91 568 91 570 c 0
EndSplineSet
Validated: 1
EndChar

StartChar: afii57796
Encoding: 1467 1467 137
Width: 0
Flags: W
HStem: -236 58<46.3418 100.691> -178 59<-58.6256 -3.27036> -119 59<-164.513 -109.992>
VStem: -167 271
AnchorPoint: "VR" -40 0 mark 0
AnchorPoint: "M2V" -187 0 basemark 0
AnchorPoint: "Q" 0 0 mark 0
LayerCount: 2
Fore
SplineSet
-25 -119 m 0x50
 -11 -119 0 -129 0 -143 c 0
 0 -145 0 -146 0 -148 c 0
 -4 -164 -22 -178 -38 -178 c 0
 -52 -178 -61 -168 -61 -155 c 0
 -61 -153 -62 -150 -61 -148 c 0
 -58 -132 -41 -119 -25 -119 c 0x50
-131 -60 m 0x30
 -116 -60 -106 -70 -106 -83 c 0
 -106 -85 -107 -87 -107 -89 c 0
 -111 -106 -126 -119 -143 -119 c 0
 -157 -119 -167 -109 -167 -96 c 0
 -167 -94 -168 -91 -167 -89 c 0
 -164 -73 -147 -60 -131 -60 c 0x30
80 -178 m 0x90
 94 -178 104 -188 104 -201 c 0
 104 -203 103 -205 103 -207 c 0
 100 -223 84 -236 68 -236 c 0
 53 -236 43 -226 43 -213 c 0
 43 -211 44 -209 44 -207 c 0
 47 -191 63 -178 80 -178 c 0x90
EndSplineSet
Validated: 1
EndChar

StartChar: afii57807
Encoding: 1468 1468 138
Width: 0
Flags: W
HStem: 211 59<23.7466 77.367>
VStem: 21 60<214.534 266.497>
AnchorPoint: "D" 0 0 mark 0
LayerCount: 2
Fore
SplineSet
57 270 m 0
 71 270 81 260 81 248 c 0
 81 245 81 243 80 241 c 0
 77 224 61 211 45 211 c 0
 31 211 21 221 21 235 c 0
 21 237 21 239 21 241 c 0
 25 257 41 270 57 270 c 0
EndSplineSet
Validated: 1
EndChar

StartChar: afii57839
Encoding: 1469 1469 139
Width: 0
Flags: W
HStem: -236 176<-36.9994 -26.0006>
VStem: -66 69
AnchorPoint: "M1" 70 0 mark 0
AnchorPoint: "M2V" 20 0 mark 0
AnchorPoint: "N" -0.5 0 mark 0
LayerCount: 2
Fore
SplineSet
-66 -216 m 2
 -37 -80 l 2
 -35 -69 -24 -60 -13 -60 c 0
 -2 -60 5 -69 3 -80 c 2
 -26 -216 l 2
 -28 -227 -39 -236 -50 -236 c 0
 -61 -236 -68 -227 -66 -216 c 2
EndSplineSet
Validated: 1
EndChar

StartChar: afii57645
Encoding: 1470 1470 140
Width: 600
Flags: W
HStem: 439 41<198.1 597.782>
LayerCount: 2
Fore
SplineSet
222 480 m 2
 582 480 l 2
 593 480 600 471 598 460 c 0
 595 448 584 439 573 439 c 2
 213 439 l 2
 202 439 195 448 198 460 c 0
 200 471 211 480 222 480 c 2
EndSplineSet
Validated: 1
EndChar

StartChar: afii57841
Encoding: 1471 1471 141
Width: 0
Flags: W
HStem: 540 41<31.1516 206.9>
VStem: 31 176
LayerCount: 2
Fore
SplineSet
56 581 m 2
 191 581 l 2
 202 581 210 572 207 560 c 0
 205 549 194 540 183 540 c 2
 48 540 l 2
 37 540 29 549 31 560 c 0
 34 572 45 581 56 581 c 2
EndSplineSet
Validated: 1
Substitution2: "'salt' Stylistic Alternatives lookup-1" uniFB1E
EndChar

StartChar: afii57842
Encoding: 1472 1472 142
Width: 600
Flags: W
VStem: 259 184
LayerCount: 2
Fore
SplineSet
259 -100 m 2
 403 580 l 2
 406 591 417 600 428 600 c 0
 439 600 446 591 443 580 c 2
 299 -100 l 2
 296 -111 285 -120 274 -120 c 0
 263 -120 256 -111 259 -100 c 2
EndSplineSet
Validated: 1
EndChar

StartChar: afii57804
Encoding: 1473 1473 143
Width: 0
Flags: W
HStem: 510 59<86.7899 142.226>
VStem: 84 61<513.846 565.404>
LayerCount: 2
Fore
SplineSet
84 539 m 0
 87 556 105 569 121 569 c 0
 135 569 145 559 145 545 c 0
 145 543 145 541 145 539 c 0
 141 523 124 510 108 510 c 0
 94 510 84 520 84 532 c 0
 84 535 83 537 84 539 c 0
EndSplineSet
Validated: 1
EndChar

StartChar: afii57803
Encoding: 1474 1474 144
Width: 0
Flags: W
HStem: 510 59<86.7899 142.226>
VStem: 84 61<513.846 565.404>
LayerCount: 2
Fore
SplineSet
84 539 m 0
 87 556 105 569 121 569 c 0
 135 569 145 559 145 545 c 0
 145 543 145 541 145 539 c 0
 141 523 124 510 108 510 c 0
 94 510 84 520 84 532 c 0
 84 535 83 537 84 539 c 0
EndSplineSet
Validated: 1
EndChar

StartChar: afii57658
Encoding: 1475 1475 145
Width: 600
Flags: W
HStem: -15 131<263.038 357.868> 285 132<326.642 421.868>
VStem: 235 152<13.8974 89.0251> 299 151<312.763 389.446>
LayerCount: 2
Fore
SplineSet
320 116 m 2xe0
 330 116 l 2
 364 116 387 95 387 65 c 0
 387 60 386 56 385 51 c 0
 377 13 341 -15 302 -15 c 2
 292 -15 l 2
 258 -15 235 7 235 37 c 0
 235 42 234 46 235 51 c 0
 243 88 281 116 320 116 c 2xe0
384 417 m 2
 394 417 l 2
 428 417 450 395 450 364 c 0
 450 360 450 355 449 351 c 0
 441 314 405 285 366 285 c 2
 356 285 l 2
 322 285 299 307 299 337 c 0
 299 342 298 346 299 351 c 0xd0
 306 388 345 417 384 417 c 2
EndSplineSet
Validated: 1
EndChar

StartChar: uni05C4
Encoding: 1476 1476 146
Width: 0
Flags: W
HStem: 674 60<121.747 176.93>
VStem: 119 62<677.881 730.404>
LayerCount: 2
Fore
SplineSet
156 734 m 0
 171 734 181 724 181 710 c 0
 181 708 180 706 180 704 c 0
 176 687 160 674 143 674 c 0
 129 674 119 683 119 697 c 0
 119 699 118 701 119 704 c 0
 122 721 139 734 156 734 c 0
EndSplineSet
Validated: 1
EndChar

StartChar: afii57664
Encoding: 1488 1488 147
Width: 600
Flags: W
HStem: 0 41<130 245.9> 439 41<456.1 572>
AnchorPoint: "VR" 300 0 basechar 0
AnchorPoint: "H" 300 0 basechar 0
AnchorPoint: "W" 300 0 basechar 0
AnchorPoint: "Q" 300 0 basechar 0
AnchorPoint: "N" 300 0 basechar 0
AnchorPoint: "Holam" 45 0 basechar 0
LayerCount: 2
Fore
SplineSet
446 144 m 1
 522 35 l 2
 528 26 525 13 515 6 c 0
 505 -2 492 -2 486 7 c 2
 279 304 l 1
 215 278 168 220 155 160 c 2
 130 41 l 1
 231 41 l 2
 242 41 249 32 246 20 c 0
 244 9 233 0 222 0 c 2
 115 0 l 2
 98 0 86 12 86 28 c 0
 86 30 87 33 87 35 c 2
 114 160 l 2
 130 233 185 303 256 336 c 1
 180 445 l 1
 175 454 177 467 187 474 c 0
 197 482 210 482 216 473 c 2
 423 176 l 1
 488 202 534 260 547 320 c 2
 572 439 l 1
 471 439 l 2
 460 439 453 448 456 460 c 0
 458 471 469 480 480 480 c 2
 587 480 l 2
 604 480 616 468 616 452 c 0
 616 450 615 447 615 445 c 2
 588 320 l 2
 573 247 517 178 446 144 c 1
EndSplineSet
Validated: 1
Substitution2: "'jalt' Justification Alternatives lookup -1" uniFB21
EndChar

StartChar: afii57665
Encoding: 1489 1489 148
Width: 600
Flags: W
HStem: 0 41<84.2176 404 445 523.9> 439 41<178.1 430.337>
VStem: 466 42<241.531 403.779>
AnchorPoint: "VR" 280 0 basechar 0
AnchorPoint: "H" 280 0 basechar 0
AnchorPoint: "W" 280 0 basechar 0
AnchorPoint: "Q" 300 0 basechar 0
AnchorPoint: "N" 300 0 basechar 0
AnchorPoint: "Holam" 50 0 basechar 0
LayerCount: 2
Fore
SplineSet
463 320 m 2
 465 329 466 337 466 345 c 0
 466 399 426 439 369 439 c 2
 193 439 l 2
 182 439 175 448 178 460 c 0
 180 471 191 480 202 480 c 2
 378 480 l 2
 455 480 508 426 508 353 c 0
 508 343 506 331 504 320 c 2
 445 41 l 1
 509 41 l 2
 520 41 527 32 524 20 c 0
 522 9 511 0 500 0 c 2
 100 0 l 2
 89 0 82 9 84 20 c 0
 87 32 98 41 109 41 c 2
 404 41 l 1
 463 320 l 2
EndSplineSet
Validated: 1
EndChar

StartChar: afii57666
Encoding: 1490 1490 149
Width: 600
Flags: W
HStem: 0 40<152.512 223.84> 439 41<332.101 449>
AnchorPoint: "VR" 280 0 basechar 0
AnchorPoint: "H" 280 0 basechar 0
AnchorPoint: "W" 280 0 basechar 0
AnchorPoint: "Q" 300 0 basechar 0
AnchorPoint: "N" 300 0 basechar 0
AnchorPoint: "Holam" 203 0 basechar 0
LayerCount: 2
Fore
SplineSet
420 300 m 2
 449 439 l 1
 348 439 l 2
 337 439 329 448 332 460 c 0
 334 471 346 480 357 480 c 2
 464 480 l 2
 481 480 493 468 493 452 c 0
 493 450 492 447 492 445 c 2
 401 20 l 2
 399 9 388 0 376 0 c 0
 365 0 358 9 360 20 c 2
 391 167 l 1
 345 77 255 20 174 0 c 0
 163 -3 153 4 152 15 c 0
 152 26 158 37 170 40 c 0
 287 68 394 179 420 300 c 2
EndSplineSet
Validated: 1
EndChar

StartChar: afii57667
Encoding: 1491 1491 150
Width: 600
Flags: W
HStem: 0 21G<404 415.5> 439 41<178.1 482 523 617.782>
AnchorPoint: "VR" 360 0 basechar 0
AnchorPoint: "H" 380 0 basechar 0
AnchorPoint: "W" 400 0 basechar 0
AnchorPoint: "Q" 380 0 basechar 0
AnchorPoint: "N" 400 0 basechar 0
AnchorPoint: "Holam" 50 0 basechar 0
LayerCount: 2
Fore
SplineSet
482 439 m 1
 193 439 l 2
 182 439 175 448 178 460 c 0
 180 471 191 480 202 480 c 2
 602 480 l 2
 613 480 620 471 618 460 c 0
 615 448 604 439 593 439 c 2
 523 439 l 1
 434 20 l 2
 432 9 421 0 410 0 c 0
 398 0 391 9 393 20 c 2
 482 439 l 1
EndSplineSet
Validated: 1
Substitution2: "'jalt' Justification Alternatives lookup -1" uniFB22
EndChar

StartChar: afii57668
Encoding: 1492 1492 151
Width: 600
Flags: W
HStem: 0 21G<116 127.5 452.5 464> 439 41<178.1 517.175>
VStem: 522 42<358.025 434.128>
AnchorPoint: "VR" 300 0 basechar 0
AnchorPoint: "H" 300 0 basechar 0
AnchorPoint: "W" 300 0 basechar 0
AnchorPoint: "Q" 300 0 basechar 0
AnchorPoint: "N" 300 0 basechar 0
AnchorPoint: "Holam" 50 0 basechar 0
LayerCount: 2
Fore
SplineSet
522 390 m 2
 523 394 522 397 522 400 c 0
 522 422 505 439 482 439 c 2
 193 439 l 2
 182 439 175 448 178 460 c 0
 180 471 191 480 202 480 c 2
 491 480 l 2
 534 480 564 450 564 409 c 0
 564 403 563 397 562 390 c 2
 483 20 l 2
 481 9 470 0 458 0 c 0
 447 0 440 9 442 20 c 2
 522 390 l 2
105 21 m 2
 160 277 l 2
 162 288 173 297 185 297 c 0
 196 297 203 288 201 277 c 2
 146 21 l 2
 144 10 133 0 122 0 c 0
 110 0 103 10 105 21 c 2
EndSplineSet
Validated: 1
Substitution2: "'jalt' Justification Alternatives lookup -1" uniFB23
EndChar

StartChar: afii57669
Encoding: 1493 1493 152
Width: 600
Flags: W
HStem: 0 21G<314.5 326> 439 41<276.101 393>
VStem: 276 160
AnchorPoint: "D" 230 0 basechar 0
AnchorPoint: "VR" 280 0 basechar 0
AnchorPoint: "H" 310 0 basechar 0
AnchorPoint: "W" 320 0 basechar 0
AnchorPoint: "Q" 310 0 basechar 0
AnchorPoint: "N" 320 0 basechar 0
AnchorPoint: "Holam_Haser_on Vav" 132 0 basechar 0
LayerCount: 2
Fore
SplineSet
436 445 m 2
 345 20 l 2
 343 9 332 0 320 0 c 0
 309 0 302 9 304 20 c 2
 393 439 l 1
 292 439 l 2
 281 439 273 448 276 460 c 0
 278 471 290 480 301 480 c 2
 408 480 l 2
 425 480 437 468 437 452 c 0
 437 450 436 447 436 445 c 2
EndSplineSet
Validated: 1
EndChar

StartChar: afii57670
Encoding: 1494 1494 153
Width: 600
Flags: W
HStem: 0 21G<294.5 305.5> 439 41<266.1 372 413 521.782>
VStem: 266 256
AnchorPoint: "VR" 260 0 basechar 0
AnchorPoint: "H" 295 0 basechar 0
AnchorPoint: "W" 300 0 basechar 0
AnchorPoint: "Q" 290 0 basechar 0
AnchorPoint: "N" 295 0 basechar 0
AnchorPoint: "Holam" 138 0 basechar 0
LayerCount: 2
Fore
SplineSet
372 439 m 1
 281 439 l 2
 270 439 263 448 266 460 c 0
 268 471 279 480 290 480 c 2
 506 480 l 2
 517 480 524 471 522 460 c 0
 519 448 508 439 497 439 c 2
 413 439 l 1
 324 20 l 2
 322 9 311 0 300 0 c 0
 289 0 281 9 283 20 c 2
 372 439 l 1
EndSplineSet
Validated: 1
EndChar

StartChar: afii57671
Encoding: 1495 1495 154
Width: 600
Flags: W
HStem: 0 21G<154.5 166 434 445.5> 439 41<178.1 233 274 512 553 617.782>
AnchorPoint: "VR" 300 0 basechar 0
AnchorPoint: "H" 300 0 basechar 0
AnchorPoint: "W" 300 0 basechar 0
AnchorPoint: "Q" 300 0 basechar 0
AnchorPoint: "N" 300 0 basechar 0
AnchorPoint: "Holam" 50 0 basechar 0
LayerCount: 2
Fore
SplineSet
553 439 m 1
 464 20 l 2
 462 9 451 0 440 0 c 0
 428 0 421 9 423 20 c 2
 512 439 l 1
 274 439 l 1
 185 20 l 2
 183 9 172 0 160 0 c 0
 149 0 142 9 144 20 c 2
 233 439 l 1
 193 439 l 2
 182 439 175 448 178 460 c 0
 180 471 191 480 202 480 c 2
 602 480 l 2
 613 480 620 471 618 460 c 0
 615 448 604 439 593 439 c 2
 553 439 l 1
EndSplineSet
Validated: 1
EndChar

StartChar: afii57672
Encoding: 1496 1496 155
Width: 600
Flags: W
HStem: -5 41<256.854 409.01> 439 41<158.1 214 418.078 540.275>
VStem: 158 42<90.4922 224.625> 556 42<324.541 423.828>
AnchorPoint: "VR" 320 0 basechar 0
AnchorPoint: "H" 310 0 basechar 0
AnchorPoint: "W" 320 0 basechar 0
AnchorPoint: "Q" 300 0 basechar 0
AnchorPoint: "N" 320 0 basechar 0
AnchorPoint: "Holam" 40 0 basechar 0
LayerCount: 2
Fore
SplineSet
376 355 m 1
 360 276 l 2
 357 265 346 256 334 256 c 0
 323 256 316 265 319 276 c 2
 335 355 l 1
 351 427 421 485 493 485 c 0
 555 485 598 442 598 383 c 0
 598 374 597 365 595 355 c 2
 561 194 l 2
 538 84 430 -5 319 -5 c 0
 223 -5 158 63 158 153 c 0
 158 166 159 180 162 194 c 2
 214 439 l 1
 173 439 l 2
 162 439 155 448 158 460 c 0
 160 471 171 480 182 480 c 2
 229 480 l 2
 246 480 258 468 258 452 c 0
 258 450 257 447 257 445 c 2
 203 194 l 2
 201 183 200 172 200 162 c 0
 200 90 252 36 328 36 c 0
 416 36 502 107 520 194 c 2
 556 355 l 2
 557 362 556 368 556 374 c 0
 556 414 526 444 484 444 c 0
 435 444 387 404 376 355 c 1
EndSplineSet
Validated: 1
EndChar

StartChar: afii57673
Encoding: 1497 1497 156
Width: 600
Flags: W
HStem: 439 41<276.101 393>
VStem: 276 160
AnchorPoint: "VR" 260 0 basechar 0
AnchorPoint: "H" 300 0 basechar 0
AnchorPoint: "W" 300 0 basechar 0
AnchorPoint: "Q" 300 0 basechar 0
AnchorPoint: "N" 320 0 basechar 0
AnchorPoint: "Holam" 148 0 basechar 0
LayerCount: 2
Fore
SplineSet
436 445 m 2
 401 280 l 2
 398 269 387 260 375 260 c 0
 364 260 357 269 360 280 c 2
 393 439 l 1
 292 439 l 2
 281 439 273 448 276 460 c 0
 278 471 290 480 301 480 c 2
 408 480 l 2
 425 480 437 468 437 452 c 0
 437 450 436 447 436 445 c 2
EndSplineSet
Validated: 1
EndChar

StartChar: afii57674
Encoding: 1498 1498 157
Width: 600
Flags: W
HStem: -200 41<357 451.854> 439 41<148.1 443 484 587.782>
AnchorPoint: "VR" 140 0 basechar 0
AnchorPoint: "H" 170 0 basechar 0
AnchorPoint: "W" 190 0 basechar 0
AnchorPoint: "Q" 190 0 basechar 0
AnchorPoint: "N" 220 0 basechar 0
AnchorPoint: "Holam" 20 0 basechar 0
LayerCount: 2
Fore
SplineSet
443 439 m 1
 163 439 l 2
 152 439 145 448 148 460 c 0
 150 471 161 480 172 480 c 2
 572 480 l 2
 583 480 590 471 588 460 c 0
 585 448 574 439 563 439 c 2
 484 439 l 1
 357 -159 l 1
 436 -159 l 2
 447 -159 454 -168 452 -180 c 1
 449 -191 438 -200 427 -200 c 2
 342 -200 l 2
 325 -200 314 -188 314 -172 c 0
 314 -170 314 -167 315 -165 c 2
 443 439 l 1
EndSplineSet
Validated: 1
EndChar

StartChar: afii57675
Encoding: 1499 1499 158
Width: 600
Flags: W
HStem: 0 41<84.2176 367.93> 439 41<178.1 443.093>
VStem: 501 42<253.333 383.812>
AnchorPoint: "VR" 230 0 basechar 0
AnchorPoint: "H" 230 0 basechar 0
AnchorPoint: "W" 230 0 basechar 0
AnchorPoint: "Q" 300 0 basechar 0
AnchorPoint: "N" 250 0 basechar 0
AnchorPoint: "Holam" 50 0 basechar 0
LayerCount: 2
Fore
SplineSet
522 200 m 2
 498 90 389 0 279 0 c 2
 100 0 l 2
 89 0 82 9 84 20 c 0
 87 32 98 41 109 41 c 2
 288 41 l 2
 376 41 462 112 481 200 c 2
 498 280 l 2
 500 291 501 302 501 312 c 0
 501 385 449 439 372 439 c 2
 193 439 l 2
 182 439 175 448 178 460 c 0
 180 471 191 480 202 480 c 2
 381 480 l 2
 477 480 543 411 543 321 c 0
 543 308 542 294 539 280 c 2
 522 200 l 2
EndSplineSet
Validated: 1
Substitution2: "'jalt' Justification Alternatives lookup -1" uniFB24
EndChar

StartChar: afii57676
Encoding: 1500 1500 159
Width: 600
Flags: W
HStem: 0 41<284.913 372.9> 439 41<224 572> 598 20G<226 237>
AnchorPoint: "J1" 0 0 basechar 0
AnchorPoint: "VR" 300 0 basechar 0
AnchorPoint: "H" 300 0 basechar 0
AnchorPoint: "W" 300 0 basechar 0
AnchorPoint: "Q" 300 0 basechar 0
AnchorPoint: "N" 300 0 basechar 0
AnchorPoint: "Holam" 10 0 basechar 0
LayerCount: 2
Fore
SplineSet
285 62 m 0
 283 50 290 41 301 41 c 2
 357 41 l 2
 369 41 376 32 373 20 c 0
 371 9 360 0 348 0 c 2
 264 0 l 2
 247 0 235 12 235 28 c 0
 235 30 236 33 236 35 c 2
 239 49 l 2
 245 76 260 101 282 119 c 2
 531 324 l 2
 544 335 553 349 557 365 c 2
 572 439 l 1
 208 439 l 2
 191 439 180 451 180 467 c 0
 180 469 180 472 181 474 c 2
 207 598 l 2
 209 608 221 618 231 618 c 0
 243 618 251 608 249 598 c 2
 224 480 l 1
 588 480 l 2
 604 480 616 468 616 453 c 0
 616 450 615 448 615 446 c 2
 598 366 l 2
 592 340 577 314 555 296 c 2
 307 90 l 1
 293 80 287 72 285 62 c 0
EndSplineSet
Validated: 1
Substitution2: "'jalt' Justification Alternatives lookup -1" uniFB25
EndChar

StartChar: afii57677
Encoding: 1501 1501 160
Width: 600
Flags: W
HStem: 0 41<191 488> 439 41<178.1 235 275 558.175>
VStem: 563 42<358.141 434.128>
AnchorPoint: "VR" 320 0 basechar 0
AnchorPoint: "H" 330 0 basechar 0
AnchorPoint: "W" 320 0 basechar 0
AnchorPoint: "Q" 320 0 basechar 0
AnchorPoint: "N" 314 0 basechar 0
AnchorPoint: "Holam" 50 0 basechar 0
LayerCount: 2
Fore
SplineSet
235 439 m 1
 193 439 l 2
 182 439 175 448 178 460 c 0
 180 471 191 480 202 480 c 2
 532 480 l 2
 575 480 605 450 605 409 c 0
 605 403 604 397 603 390 c 2
 527 35 l 2
 523 16 504 0 485 0 c 2
 176 0 l 2
 159 0 148 12 148 28 c 0
 148 30 148 33 149 35 c 2
 235 439 l 1
275 439 m 1
 191 41 l 1
 488 41 l 1
 563 390 l 2
 564 394 563 397 563 400 c 0
 563 422 546 439 523 439 c 2
 275 439 l 1
EndSplineSet
Validated: 1
Substitution2: "'jalt' Justification Alternatives lookup -1" uniFB26
EndChar

StartChar: afii57678
Encoding: 1502 1502 161
Width: 600
Flags: W
HStem: 0 41<266.236 488> 439 41<158.1 214 323.7 493.28>
VStem: 543 42<256.586 386.924>
AnchorPoint: "VR" 300 0 basechar 0
AnchorPoint: "H" 320 0 basechar 0
AnchorPoint: "W" 300 0 basechar 0
AnchorPoint: "Q" 320 0 basechar 0
AnchorPoint: "N" 300.425 2 basechar 0
AnchorPoint: "Holam" 40 0 basechar 0
LayerCount: 2
Fore
SplineSet
249 407 m 1
 295 454 359 485 423 485 c 0
 520 485 585 418 585 328 c 0
 585 315 584 301 581 287 c 2
 527 35 l 2
 523 16 504 0 485 0 c 2
 283 0 l 2
 271 0 264 9 266 20 c 0
 269 32 280 41 292 41 c 2
 488 41 l 1
 540 286 l 2
 542 297 543 308 543 318 c 0
 543 390 491 444 414 444 c 0
 327 444 241 373 223 286 c 2
 166 21 l 2
 164 9 153 0 142 0 c 0
 130 0 123 9 125 21 c 2
 214 439 l 1
 173 439 l 2
 162 439 155 448 158 460 c 0
 160 471 171 480 182 480 c 2
 229 480 l 2
 246 480 258 468 258 452 c 0
 258 450 257 447 257 445 c 2
 249 407 l 1
EndSplineSet
Validated: 1
EndChar

StartChar: afii57679
Encoding: 1503 1503 162
Width: 600
Flags: W
HStem: -200 41<397 463.854> 439 41<416.101 483>
VStem: 355 172
AnchorPoint: "VR" 170 0 basechar 0
AnchorPoint: "H" 210 0 basechar 0
AnchorPoint: "W" 250 0 basechar 0
AnchorPoint: "Q" 240 0 basechar 0
AnchorPoint: "N" 290 0 basechar 0
AnchorPoint: "Holam" 285 0 basechar 0
LayerCount: 2
Fore
SplineSet
355 -165 m 2
 483 439 l 1
 432 439 l 2
 421 439 413 448 416 460 c 0
 418 471 430 480 441 480 c 2
 498 480 l 2
 515 480 527 468 527 452 c 0
 527 450 526 447 526 445 c 2
 397 -159 l 1
 448 -159 l 2
 459 -159 466 -168 464 -180 c 1
 461 -191 450 -200 439 -200 c 2
 382 -200 l 2
 365 -200 355 -188 355 -172 c 0
 355 -170 354 -167 355 -165 c 2
EndSplineSet
Validated: 1
EndChar

StartChar: afii57680
Encoding: 1504 1504 163
Width: 600
Flags: W
HStem: 0 41<224.218 369> 439 41<338.1 439.175>
VStem: 444 42<358.141 434.128>
AnchorPoint: "VR" 300 0 basechar 0
AnchorPoint: "H" 300 0 basechar 0
AnchorPoint: "W" 300 0 basechar 0
AnchorPoint: "Q" 303 0 basechar 0
AnchorPoint: "N" 300 0 basechar 0
AnchorPoint: "Holam" 210 0 basechar 0
LayerCount: 2
Fore
SplineSet
240 0 m 2
 229 0 222 9 224 20 c 0
 227 32 238 41 249 41 c 2
 369 41 l 1
 444 390 l 2
 445 394 444 397 444 400 c 0
 444 422 427 439 404 439 c 2
 353 439 l 2
 342 439 335 448 338 460 c 0
 340 471 351 480 362 480 c 2
 413 480 l 2
 456 480 486 450 486 409 c 0
 486 403 485 397 484 390 c 2
 408 35 l 2
 404 16 385 0 366 0 c 2
 240 0 l 2
EndSplineSet
Validated: 1
EndChar

StartChar: afii57681
Encoding: 1505 1505 164
Width: 600
Flags: W
HStem: -5 41<256.854 409.203> 439 41<158.1 214 255 558.175>
VStem: 158 42<90.4922 224.625> 563 42<358.093 434.128>
AnchorPoint: "VR" 315 0 basechar 0
AnchorPoint: "H" 320 0 basechar 0
AnchorPoint: "W" 315 0 basechar 0
AnchorPoint: "Q" 299.787 -1 basechar 0
AnchorPoint: "N" 315 0 basechar 0
AnchorPoint: "Holam" 40 0 basechar 0
LayerCount: 2
Fore
SplineSet
523 439 m 2
 255 439 l 1
 203 194 l 2
 201 183 200 172 200 162 c 0
 200 90 252 36 328 36 c 0
 416 36 502 107 520 194 c 2
 563 390 l 2
 564 394 563 397 563 400 c 0
 563 422 546 439 523 439 c 2
532 480 m 2
 575 480 605 450 605 409 c 0
 605 403 604 397 603 390 c 2
 563 194 l 2
 540 84 430 -5 319 -5 c 0
 223 -5 158 63 158 153 c 0
 158 166 159 180 162 194 c 2
 214 439 l 1
 173 439 l 2
 162 439 155 448 158 460 c 0
 160 471 171 480 182 480 c 2
 532 480 l 2
EndSplineSet
Validated: 1
EndChar

StartChar: afii57682
Encoding: 1506 1506 165
Width: 600
Flags: W
HStem: 0 41<84.2176 161 201 382.212> 439 41<178.1 245 464.101 531>
AnchorPoint: "VR" 260 0 basechar 0
AnchorPoint: "H" 300 0 basechar 0
AnchorPoint: "W" 260 0 basechar 0
AnchorPoint: "Q" 270 0 basechar 0
AnchorPoint: "N" 270 0 basechar 0
AnchorPoint: "Holam" 50 0 basechar 0
LayerCount: 2
Fore
SplineSet
100 0 m 2
 89 0 82 9 84 20 c 0
 87 32 98 41 109 41 c 2
 161 41 l 1
 245 439 l 1
 193 439 l 2
 182 439 175 448 178 460 c 0
 180 471 191 480 202 480 c 2
 260 480 l 2
 277 480 288 468 288 452 c 0
 288 450 288 447 287 445 c 2
 201 41 l 1
 309 41 l 2
 396 41 462 112 481 200 c 2
 531 439 l 1
 480 439 l 2
 469 439 461 448 464 460 c 0
 466 471 478 480 489 480 c 2
 546 480 l 2
 563 480 575 468 575 452 c 0
 575 450 574 447 574 445 c 2
 522 200 l 2
 498 89 410 0 300 0 c 2
 100 0 l 2
EndSplineSet
Validated: 1
Substitution2: "'salt' Stylistic Alternatives lookup-1" uniFB20
Substitution2: "Alternate Ayin Substitution Table" uniFB20
EndChar

StartChar: afii57683
Encoding: 1507 1507 166
Width: 600
Flags: W
HStem: -200 41<445 511.854> 215 41<230.825 339.834> 439 41<255 517.175>
VStem: 184 42<260.872 395.031> 522 42<357.706 434.128>
AnchorPoint: "VR" 220 0 basechar 0
AnchorPoint: "H" 250 0 basechar 0
AnchorPoint: "W" 290 0 basechar 0
AnchorPoint: "Q" 260 0 basechar 0
AnchorPoint: "N" 300 0 basechar 0
AnchorPoint: "Holam" 91 0 basechar 0
LayerCount: 2
Fore
SplineSet
403 -165 m 2
 522 390 l 2
 523 394 522 397 522 400 c 0
 522 422 505 439 482 439 c 2
 255 439 l 1
 227 305 l 2
 226 301 226 298 226 294 c 0
 226 272 242 256 265 256 c 2
 324 256 l 2
 335 256 343 247 340 236 c 1
 338 224 327 215 316 215 c 2
 257 215 l 2
 214 215 184 245 184 286 c 0
 184 292 183 298 184 305 c 2
 216 445 l 2
 220 464 239 480 258 480 c 2
 491 480 l 2
 534 480 564 450 564 409 c 0
 564 403 563 397 562 390 c 2
 445 -159 l 1
 496 -159 l 2
 507 -159 514 -168 512 -180 c 1
 509 -191 498 -200 487 -200 c 2
 430 -200 l 2
 413 -200 402 -189 402 -173 c 0
 402 -170 402 -168 403 -165 c 2
EndSplineSet
Validated: 1
EndChar

StartChar: afii57684
Encoding: 1508 1508 167
Width: 600
Flags: W
HStem: 0 41<125.236 440.755> 215 41<230.825 329.834> 439 41<255 517.175>
VStem: 184 42<260.872 395.031> 522 42<358.182 434.128>
AnchorPoint: "VR" 290 0 basechar 0
AnchorPoint: "H" 300 0 basechar 0
AnchorPoint: "W" 290 0 basechar 0
AnchorPoint: "Q" 300 0 basechar 0
AnchorPoint: "N" 300 0 basechar 0
AnchorPoint: "Holam" 91 0 basechar 0
LayerCount: 2
Fore
SplineSet
491 480 m 2
 534 480 564 450 564 409 c 0
 564 403 563 397 562 390 c 2
 498 90 l 2
 488 40 439 0 389 0 c 2
 142 0 l 2
 130 0 123 9 125 20 c 0
 128 32 139 41 151 41 c 2
 398 41 l 2
 425 41 451 63 457 90 c 2
 522 390 l 2
 523 394 522 397 522 400 c 0
 522 422 505 439 482 439 c 2
 255 439 l 1
 227 305 l 2
 226 301 226 298 226 294 c 0
 226 272 242 256 265 256 c 2
 314 256 l 2
 325 256 333 247 330 236 c 1
 328 224 317 215 306 215 c 2
 257 215 l 2
 214 215 184 245 184 286 c 0
 184 292 183 298 184 305 c 2
 216 445 l 2
 220 464 239 480 258 480 c 2
 491 480 l 2
EndSplineSet
Validated: 1
EndChar

StartChar: afii57685
Encoding: 1509 1509 168
Width: 600
Flags: W
HStem: -200 41<179 245.854> 160 41<255 416.212> 439 41<178.1 265 444.101 531>
AnchorPoint: "M1" 176 0 basechar 0
AnchorPoint: "H" 400 0 basechar 0
AnchorPoint: "W" 360 0 basechar 0
AnchorPoint: "Q" 380 0 basechar 0
AnchorPoint: "N" 340 0 basechar 0
AnchorPoint: "Holam" 50 0 basechar 0
LayerCount: 2
Fore
SplineSet
247 160 m 1
 179 -159 l 1
 230 -159 l 2
 241 -159 248 -168 246 -180 c 1
 243 -191 232 -200 221 -200 c 2
 164 -200 l 2
 147 -200 136 -188 136 -172 c 0
 136 -170 136 -167 137 -165 c 2
 265 439 l 1
 193 439 l 2
 182 439 175 448 178 460 c 0
 180 471 191 480 202 480 c 2
 280 480 l 2
 297 480 308 468 308 452 c 0
 308 450 308 447 307 445 c 2
 255 201 l 1
 343 201 l 2
 430 201 496 272 515 360 c 1
 531 439 l 1
 460 439 l 2
 449 439 441 448 444 460 c 0
 446 471 458 480 469 480 c 2
 546 480 l 2
 563 480 575 468 575 452 c 0
 575 450 574 447 574 445 c 2
 556 360 l 2
 532 249 444 160 334 160 c 2
 247 160 l 1
EndSplineSet
Validated: 1
EndChar

StartChar: afii57686
Encoding: 1510 1510 169
Width: 600
Flags: W
HStem: 0 41<84.2363 447> 439 41<178.1 265 444.101 531>
VStem: 254 43<323.865 438.684> 458 43<61.6667 166.088>
AnchorPoint: "VR" 270 0 basechar 0
AnchorPoint: "H" 290 0 basechar 0
AnchorPoint: "W" 270 0 basechar 0
AnchorPoint: "Q" 280 0 basechar 0
AnchorPoint: "N" 280 0 basechar 0
AnchorPoint: "Holam" 50 0 basechar 0
LayerCount: 2
Fore
SplineSet
410 248 m 1
 461 206 l 2
 486 185 501 154 501 117 c 0
 501 107 499 96 497 85 c 2
 486 35 l 2
 482 16 463 0 444 0 c 2
 101 0 l 2
 89 0 82 9 84 20 c 0
 87 32 98 41 110 41 c 2
 447 41 l 1
 458 85 l 2
 460 93 458 100 458 108 c 0
 458 136 447 160 426 176 c 2
 294 284 l 2
 269 305 254 336 254 373 c 0
 254 383 256 394 258 405 c 2
 265 439 l 1
 193 439 l 2
 182 439 175 448 178 460 c 0
 180 471 191 480 202 480 c 2
 280 480 l 2
 297 480 308 468 308 452 c 0
 308 450 308 447 307 445 c 0
 300 418 297 404 297 382 c 0
 297 354 308 330 329 314 c 2
 370 281 l 1
 452 286 513 355 531 439 c 1
 458 439 l 2
 447 439 441 448 444 460 c 0
 446 471 458 480 469 480 c 2
 546 480 l 2
 563 480 575 468 575 452 c 0
 575 450 574 447 574 445 c 2
 572 439 l 1
 553 349 491 273 410 248 c 1
EndSplineSet
Validated: 1
EndChar

StartChar: afii57687
Encoding: 1511 1511 170
Width: 600
Flags: W
HStem: 0 41<292.914 381.9> 439 41<177.1 531>
AnchorPoint: "M1" 120 0 basechar 0
AnchorPoint: "H" 340 0 basechar 0
AnchorPoint: "W" 320 0 basechar 0
AnchorPoint: "Q" 325 0 basechar 0
AnchorPoint: "N" 300 0 basechar 0
AnchorPoint: "Holam" 50 0 basechar 0
LayerCount: 2
Fore
SplineSet
202 480 m 2
 546 480 l 2
 563 480 575 468 575 452 c 0
 575 450 574 447 574 445 c 2
 546 316 l 2
 540 289 525 264 503 246 c 2
 315 90 l 2
 302 80 295 72 293 62 c 0
 291 50 299 41 310 41 c 2
 367 41 l 2
 378 41 385 32 382 20 c 0
 380 9 369 0 358 0 c 2
 273 0 l 2
 256 0 244 12 244 28 c 0
 244 30 245 33 245 35 c 2
 248 49 l 2
 254 76 269 101 291 119 c 2
 479 274 l 2
 493 285 502 299 505 315 c 2
 531 439 l 1
 192 439 l 2
 181 439 174 448 177 460 c 0
 179 471 190 480 202 480 c 2
83 -180 m 2
 189 322 l 2
 192 333 203 342 215 342 c 0
 226 342 233 333 230 322 c 2
 124 -180 l 2
 121 -191 110 -200 99 -200 c 0
 87 -200 80 -191 83 -180 c 2
EndSplineSet
Validated: 1
EndChar

StartChar: afii57688
Encoding: 1512 1512 171
Width: 600
Flags: W
HStem: 0 21G<452.5 464> 439 41<178.1 517.175>
VStem: 522 42<358.025 434.128>
AnchorPoint: "VR" 390 0 basechar 0
AnchorPoint: "H" 420 0 basechar 0
AnchorPoint: "W" 450 0 basechar 0
AnchorPoint: "Q" 420 0 basechar 0
AnchorPoint: "N" 450 0 basechar 0
AnchorPoint: "Holam" 50 0 basechar 0
LayerCount: 2
Fore
SplineSet
522 390 m 2
 523 394 522 397 522 400 c 0
 522 422 505 439 482 439 c 2
 193 439 l 2
 182 439 175 448 178 460 c 0
 180 471 191 480 202 480 c 2
 491 480 l 2
 534 480 564 450 564 409 c 0
 564 403 563 397 562 390 c 2
 483 20 l 2
 481 9 470 0 458 0 c 0
 447 0 440 9 442 20 c 2
 522 390 l 2
EndSplineSet
Validated: 1
Substitution2: "'jalt' Justification Alternatives lookup -1" uniFB27
EndChar

StartChar: afii57689
Encoding: 1513 1513 172
Width: 600
Flags: W
HStem: 0 41<187.663 289 329 439.875> 439 41<214 289.782 506.1 572>
VStem: 110 42<76.3594 190.692>
AnchorPoint: "VR" 300 0 basechar 0
AnchorPoint: "H" 300 0 basechar 0
AnchorPoint: "W" 300 0 basechar 0
AnchorPoint: "Q" 300 0 basechar 0
AnchorPoint: "N" 300 0 basechar 0
AnchorPoint: "Holam" 50 0 basechar 0
LayerCount: 2
Fore
SplineSet
329 41 m 1
 369 41 l 2
 435 41 499 94 513 160 c 2
 572 439 l 1
 521 439 l 2
 510 439 503 448 506 460 c 0
 508 471 519 480 530 480 c 2
 587 480 l 2
 604 480 616 468 616 452 c 0
 616 450 615 447 615 445 c 2
 554 160 l 2
 535 72 448 0 360 0 c 2
 240 0 l 2
 163 0 110 54 110 127 c 0
 110 137 112 149 114 160 c 2
 175 445 l 2
 179 464 198 480 217 480 c 2
 274 480 l 2
 285 480 292 471 290 460 c 0
 287 448 276 439 265 439 c 2
 214 439 l 1
 155 160 l 2
 153 151 152 143 152 135 c 0
 152 81 192 41 249 41 c 2
 289 41 l 1
 378 460 l 2
 380 471 391 480 402 480 c 0
 413 480 420 471 418 460 c 2
 329 41 l 1
EndSplineSet
Validated: 1
EndChar

StartChar: afii57690
Encoding: 1514 1514 173
Width: 600
Flags: W
HStem: 0 41<62.1516 147> 439 41<156.101 231 271 517.175>
VStem: 522 42<358.025 434.128>
AnchorPoint: "VR" 290 0 basechar 0
AnchorPoint: "H" 300 0 basechar 0
AnchorPoint: "W" 290 0 basechar 0
AnchorPoint: "Q" 300 0 basechar 0
AnchorPoint: "N" 300 0 basechar 0
AnchorPoint: "Holam" 38 0 basechar 0
LayerCount: 2
Fore
SplineSet
231 439 m 1
 172 439 l 2
 161 439 153 448 156 460 c 0
 158 471 170 480 181 480 c 2
 491 480 l 2
 534 480 564 450 564 409 c 0
 564 403 563 397 562 390 c 2
 483 20 l 2
 481 9 470 0 458 0 c 0
 447 0 440 9 442 20 c 2
 522 390 l 2
 523 394 522 397 522 400 c 0
 522 422 505 439 482 439 c 2
 271 439 l 1
 185 35 l 2
 181 16 163 0 144 0 c 2
 79 0 l 2
 68 0 60 9 62 20 c 0
 65 32 77 41 88 41 c 2
 147 41 l 1
 231 439 l 1
EndSplineSet
Validated: 1
Substitution2: "'jalt' Justification Alternatives lookup -1" uniFB28
EndChar

StartChar: uni05F3
Encoding: 1523 1523 177
Width: 600
Flags: MW
LayerCount: 2
Fore
SplineSet
276 604 m 1
 370 604 l 1
 310 351 l 1
 307 326 298 315 280 315 c 0
 262 315 253 326 250 351 c 1
 276 604 l 1
EndSplineSet
Validated: 1
EndChar

StartChar: uni05F4
Encoding: 1524 1524 178
Width: 600
Flags: MW
LayerCount: 2
Fore
SplineSet
184 604 m 1
 278 604 l 1
 218 351 l 1
 215 326 206 315 188 315 c 0
 170 315 161 326 158 351 c 1
 184 604 l 1
364 604 m 1
 458 604 l 1
 398 351 l 1
 395 326 386 315 368 315 c 0
 350 315 341 326 338 351 c 1
 364 604 l 1
EndSplineSet
Validated: 1
EndChar

StartChar: endash
Encoding: 8211 8211 183
Width: 600
Flags: W
HStem: 261 41<132.146 587.79>
LayerCount: 2
Fore
SplineSet
556 261 m 2
 155 261 l 2
 136 261 129 268 132 282 c 0
 135 295 145 302 164 302 c 2
 565 302 l 2
 583 302 591 295 588 282 c 0
 585 268 574 261 556 261 c 2
EndSplineSet
Validated: 1
EndChar

StartChar: emdash
Encoding: 8212 8212 184
Width: 600
Flags: W
HStem: 261 41<61.1458 659.75>
LayerCount: 2
Fore
SplineSet
627 261 m 2
 83 261 l 2
 65 261 58 268 61 282 c 0
 64 295 74 302 92 302 c 2
 636 302 l 2
 654 302 663 295 660 282 c 0
 657 268 645 261 627 261 c 2
EndSplineSet
Validated: 1
EndChar

StartChar: afii00208
Encoding: 8213 8213 185
Width: 600
Flags: W
HStem: 261 41<33.1458 687.75>
LayerCount: 2
Fore
SplineSet
655 261 m 2
 55 261 l 2
 37 261 30 268 33 282 c 0
 36 295 46 302 64 302 c 2
 664 302 l 2
 682 302 691 295 688 282 c 0
 685 268 673 261 655 261 c 2
EndSplineSet
Validated: 1
EndChar

StartChar: quoteright
Encoding: 8217 8217 186
Width: 600
Flags: HW
HStem: 584 20G<335 468 468 468>
LayerCount: 2
Fore
SplineSet
335 604 m 1
 468 604 l 1
 267 339 l 2
 252 320 244 314 230 314 c 0
 217 314 207 324 207 337 c 0
 207 342 209 348 212 354 c 2
 335 604 l 1
EndSplineSet
EndChar

StartChar: quotesinglbase
Encoding: 8218 8218 187
Width: 600
Flags: HW
LayerCount: 2
Fore
SplineSet
238 145 m 1
 371 145 l 1
 170 -120 l 2
 155 -139 147 -145 133 -145 c 0
 120 -145 110 -135 110 -122 c 0
 110 -117 112 -111 115 -105 c 2
 238 145 l 1
EndSplineSet
EndChar

StartChar: quotedblright
Encoding: 8221 8221 188
Width: 600
Flags: W
HStem: 584 20G<292 418 418 418 509 635 635 635>
LayerCount: 2
Fore
SplineSet
292 604 m 1
 418 604 l 1
 230 365 l 2
 217 349 207 343 194 343 c 0
 181 343 170 352 170 364 c 0
 170 368 172 374 174 379 c 2
 292 604 l 1
509 604 m 1
 635 604 l 1
 447 365 l 2
 434 349 425 343 412 343 c 0
 398 343 387 352 387 364 c 0
 387 368 388 373 391 379 c 2
 509 604 l 1
EndSplineSet
EndChar

StartChar: quotedblbase
Encoding: 8222 8222 189
Width: 600
Flags: HW
LayerCount: 2
Fore
SplineSet
195 145 m 1
 321 145 l 1
 133 -94 l 2
 120 -110 110 -116 97 -116 c 0
 84 -116 73 -107 73 -95 c 0
 73 -91 75 -85 77 -80 c 2
 195 145 l 1
412 145 m 1
 538 145 l 1
 350 -94 l 2
 337 -110 328 -116 315 -116 c 0
 301 -116 290 -107 290 -95 c 0
 290 -91 291 -86 294 -80 c 2
 412 145 l 1
EndSplineSet
EndChar

StartChar: afii57636
Encoding: 8362 8362 190
Width: 600
Flags: W
HStem: 0 41<256 488.739> 439 41<194 397.931>
VStem: 426 42<253.688 411.768>
LayerCount: 2
Fore
SplineSet
527 130 m 2
 597 459 l 2
 599 471 610 480 621 480 c 0
 633 480 640 471 638 459 c 2
 568 130 l 2
 561 96 549 62 514 33 c 0
 478 4 442 0 410 0 c 2
 206 0 l 1
 273 313 l 2
 275 324 286 334 298 334 c 0
 309 334 316 324 314 313 c 2
 256 41 l 1
 418 41 l 2
 450 41 467 43 491 62 c 1
 515 83 519 96 527 130 c 2
460 313 m 2
 429 167 l 2
 427 155 416 146 404 146 c 0
 393 146 386 155 388 167 c 2
 419 313 l 2
 423 333 426 349 426 362 c 0
 426 379 421 392 409 408 c 0
 386 436 365 439 320 439 c 2
 194 439 l 1
 105 20 l 2
 103 9 92 0 80 0 c 0
 69 0 62 9 64 20 c 2
 162 480 l 1
 329 480 l 2
 374 480 415 477 444 439 c 1
 462 418 468 393 468 369 c 0
 468 351 465 333 460 313 c 2
EndSplineSet
Validated: 1
EndChar

StartChar: Euro
Encoding: 8364 8364 191
Width: 600
Flags: W
HStem: -16 41<243.195 421.332> 217 37<61.1582 111 158 435.856> 314 37<82.1429 130 181 485.855> 535 41<331.406 507.792> 543 20G<612 624>
VStem: 111 41<120.986 217> 568 41<397.871 432.812>
LayerCount: 2
Fore
SplineSet
181 351 m 1xf6
 469 351 l 2
 485 351 489 346 486 333 c 0
 483 319 477 314 461 314 c 2
 171 314 l 1
 158 254 l 1
 419 254 l 2
 435 254 439 249 436 235 c 0
 433 222 426 217 411 217 c 2
 152 217 l 1
 152 213 152 210 152 207 c 0
 152 102 224 25 327 25 c 0
 396 25 453 51 520 115 c 0
 528 123 534 125 542 125 c 0
 552 125 559 117 557 106 c 1
 554 96 539 79 508 55 c 0
 449 8 383 -16 319 -16 c 0
 202 -16 111 76 111 194 c 0
 111 201 110 209 111 217 c 1
 79 217 l 2
 63 217 58 222 61 235 c 0
 64 249 71 254 87 254 c 2
 117 254 l 1
 130 314 l 1
 100 314 l 2
 84 314 79 319 82 333 c 0
 85 346 91 351 108 351 c 2
 141 351 l 1
 182 481 304 576 427 576 c 0
 493 576 549 552 586 507 c 1
 592 535 l 2xf6
 596 552 605 563 619 563 c 0xee
 629 563 634 556 634 546 c 0
 634 542 634 539 633 535 c 2
 609 424 l 2
 606 407 596 397 582 397 c 0
 569 397 566 405 568 421 c 0
 569 425 568 429 568 433 c 0
 568 489 502 535 419 535 c 0
 319 535 222 460 181 351 c 1xf6
EndSplineSet
Validated: 1
EndChar

StartChar: SF110000
Encoding: 9474 9474 192
Width: 600
Flags: W
VStem: 230 267
LayerCount: 2
Fore
SplineSet
497 833 m 2
 270 -233 l 2
 267 -251 258 -260 245 -260 c 0
 232 -260 227 -251 230 -233 c 2
 457 833 l 2
 461 851 470 860 483 860 c 0
 496 860 501 851 497 833 c 2
EndSplineSet
Validated: 1
EndChar

StartChar: uni25CC
Encoding: 9676 9676 193
Width: 600
Flags: W
HStem: 28 30<266.145 352.564> 197 88<144.145 161.947 539.051 559.245> 426 30<353.284 435.855>
VStem: 131 31<197.57 271.531> 144 29<214.422 284.614> 539 31<216.376 284.704>
LayerCount: 2
Fore
SplineSet
150 113 m 0xe4
 147 119 150 129 158 134 c 0
 166 139 175 137 178 131 c 0
 186 116 197 103 209 93 c 0
 214 88 214 78 207 72 c 1
 201 65 191 64 186 68 c 0
 172 81 159 96 150 113 c 0xe4
549 371 m 0
 553 364 550 354 542 350 c 0
 534 345 525 346 522 353 c 1
 514 366 504 379 492 390 c 0
 487 395 487 404 494 411 c 0
 500 417 510 419 515 414 c 0
 529 402 541 387 549 371 c 0
136 242 m 0
 138 252 141 262 144 272 c 0
 147 280 156 286 164 285 c 0
 172 284 176 276 173 268 c 0xec
 170 260 168 251 166 242 c 0
 164 232 162 223 162 214 c 1xf4
 161 206 152 198 144 197 c 0xec
 135 196 131 201 131 210 c 0xf4
 132 220 133 231 136 242 c 0
566 242 m 0
 563 232 560 221 557 211 c 0
 554 203 547 195 539 197 c 0
 531 198 525 207 528 216 c 0
 531 224 534 233 536 242 c 0
 537 251 539 260 539 268 c 0
 540 276 547 284 556 285 c 0
 564 286 570 280 570 272 c 0
 569 262 568 252 566 242 c 0
259 414 m 0
 266 419 276 417 279 411 c 0
 283 404 279 395 272 390 c 0
 255 379 239 365 225 351 c 0
 219 345 209 343 204 348 c 0
 198 353 199 362 205 369 c 0
 221 386 239 401 259 414 c 0
443 70 m 0
 436 65 427 66 423 72 c 1
 420 79 423 89 431 94 c 0
 446 104 462 117 476 131 c 0
 482 137 492 139 497 134 c 0
 503 129 502 119 496 113 c 0
 480 97 462 82 443 70 c 0
397 456 m 0
 407 456 417 455 427 454 c 0
 435 453 439 445 436 437 c 0
 433 429 424 425 416 426 c 0
 408 427 399 426 391 426 c 0
 381 426 372 427 362 426 c 0
 354 425 347 428 348 437 c 0
 348 445 356 452 364 454 c 1
 375 455 386 456 397 456 c 0
336 28 m 0
 326 27 316 28 306 28 c 0
 295 28 285 27 275 28 c 0
 268 29 263 37 266 45 c 0
 269 53 278 59 286 58 c 0
 294 57 303 56 312 56 c 0
 321 56 330 57 339 58 c 0
 347 59 353 53 353 45 c 0
 352 37 345 29 336 28 c 0
EndSplineSet
Validated: 1
EndChar

StartChar: uniFB1E
Encoding: 64286 64286 197
Width: 0
Flags: W
HStem: 540 41<-54.5199 54.5199>
VStem: -111 222
LayerCount: 2
Fore
SplineSet
38 591 m 0
 55 599 60 607 82 624 c 0
 91 631 104 629 111 620 c 0
 117 611 115 598 106 591 c 0
 90 579 81 566 56 554 c 0
 38 545 22 540 0 540 c 0
 -22 540 -38 545 -56 554 c 0
 -81 566 -90 579 -106 591 c 0
 -115 598 -117 611 -111 620 c 0
 -104 629 -91 631 -82 624 c 0
 -60 607 -55 599 -38 591 c 0
 -21 583 -17 581 0 581 c 0
 17 581 21 583 38 591 c 0
EndSplineSet
Validated: 1
EndChar

StartChar: uniFB29
Encoding: 64297 64297 208
Width: 600
Flags: W
HStem: 261 41<132.146 343 384 587.763>
LayerCount: 2
Fore
SplineSet
154 261 m 2
 136 261 129 268 132 282 c 0
 135 295 145 302 163 302 c 2
 343 302 l 1
 386 503 l 2
 390 521 399 530 413 530 c 0
 426 530 431 521 427 503 c 2
 384 302 l 1
 564 302 l 2
 583 302 591 295 588 282 c 0
 585 268 574 261 555 261 c 2
 154 261 l 2
EndSplineSet
Validated: 1
EndChar

StartChar: uniFB4F
Encoding: 64335 64335 246
Width: 600
Flags: W
HStem: 439 41<455.146 572> 597 20G<226 237.5>
LayerCount: 2
Fore
SplineSet
220 467 m 1
 424 176 l 1
 488 202 534 260 547 320 c 2
 572 439 l 1
 471 439 l 2
 460 439 453 448 455 460 c 1
 458 471 469 480 480 480 c 2
 587 480 l 2
 604 480 616 468 616 452 c 0
 616 450 615 447 615 445 c 2
 588 320 l 2
 572 247 517 178 446 144 c 1
 522 35 l 2
 528 26 525 13 515 6 c 0
 505 -2 492 -2 486 7 c 2
 180 445 l 2
 175 453 177 455 181 474 c 2
 207 597 l 2
 209 608 220 617 232 617 c 0
 243 617 250 608 248 597 c 2
 220 467 l 1
EndSplineSet
Validated: 1
LCarets2: 2 0 0 
Ligature2: "'ccmp' Alef Lamed" afii57664 uni0000 afii57676
Ligature2: "'ccmp' Alef Lamed" afii57664 afii301 afii57676
EndChar

StartChar: uni05C5
Encoding: 1477 1477 247
Width: 0
Flags: W
HStem: -194 60<-62.8514 -7.63805>
VStem: -66 62<-190.404 -137.881>
LayerCount: 2
Fore
SplineSet
-28 -134 m 0
 -14 -134 -4 -143 -4 -157 c 0
 -4 -159 -4 -161 -5 -164 c 0
 -8 -181 -24 -194 -41 -194 c 0
 -56 -194 -66 -184 -66 -170 c 0
 -66 -168 -66 -166 -66 -164 c 0
 -62 -147 -45 -134 -28 -134 c 0
EndSplineSet
Validated: 1
EndChar

StartChar: uni05C6
Encoding: 1478 1478 248
Width: 600
Flags: W
HStem: 0 41<259 393.9> 439 41<367.634 467.834>
VStem: 216 252
LayerCount: 2
Fore
SplineSet
370 0 m 2
 244 0 l 2
 228 0 216 12 216 28 c 0
 216 30 216 33 216 35 c 2
 275 320 l 2
 286 370 352 480 402 480 c 2
 452 480 l 2
 464 480 470 471 468 460 c 0
 465 448 455 439 443 439 c 2
 393 439 l 2
 365 439 322 347 316 320 c 2
 259 41 l 1
 379 41 l 2
 391 41 397 32 394 20 c 0
 392 9 382 0 370 0 c 2
EndSplineSet
Validated: 1
EndChar

StartChar: uni05C7
Encoding: 1479 1479 249
Width: 0
Flags: W
HStem: -101 41<-104.899 -43 0 70.8336>
VStem: -105 176
AnchorPoint: "VR" -40 0 mark 0
AnchorPoint: "M2V" -128 0 basemark 0
AnchorPoint: "W" 0 0 mark 0
LayerCount: 2
Fore
SplineSet
-43 -101 m 1
 -89 -101 l 2
 -99 -101 -108 -92 -105 -80 c 0
 -103 -69 -91 -60 -81 -60 c 2
 55 -60 l 2
 67 -60 73 -69 71 -80 c 0
 68 -92 59 -101 47 -101 c 2
 0 -101 l 1
 -23 -200 l 2
 -25 -211 -37 -220 -47 -220 c 0
 -59 -220 -67 -211 -65 -200 c 2
 -43 -101 l 1
EndSplineSet
Validated: 1
EndChar

StartChar: uni05BA
Encoding: 1466 1466 250
Width: 0
Flags: W
HStem: 540 59<93.7466 147.367>
VStem: 91 60<543.534 595.497>
AnchorPoint: "Holam_Haser_on Vav" 0 0 mark 0
LayerCount: 2
Fore
SplineSet
91 570 m 0
 95 586 111 599 127 599 c 0
 141 599 151 589 151 577 c 0
 151 574 151 572 150 570 c 0
 147 553 131 540 115 540 c 0
 101 540 91 549 91 563 c 0
 91 565 91 568 91 570 c 0
EndSplineSet
Validated: 1
EndChar

StartChar: uni05A2
Encoding: 1442 1442 251
Width: 600
Flags: W
HStem: -242 182
VStem: 190 42<-126.355 -60.7621> 333 41<-113.013 -60.5145>
LayerCount: 2
Fore
SplineSet
285 -169 m 1
 273 -222 l 2
 271 -233 260 -242 249 -242 c 0
 237 -242 230 -233 232 -222 c 2
 244 -169 l 1
 211 -161 190 -134 190 -99 c 0
 190 -93 189 -87 190 -80 c 0
 192 -69 205 -60 217 -60 c 0
 228 -60 235 -69 233 -80 c 0
 232 -84 232 -87 232 -91 c 0
 232 -114 249 -131 272 -131 c 0
 300 -131 327 -108 333 -80 c 0
 335 -69 347 -60 358 -60 c 0
 369 -60 376 -69 374 -80 c 0
 365 -124 327 -160 285 -169 c 1
EndSplineSet
Validated: 1
EndChar

StartChar: uni0000
Encoding: 0 0 252
Width: 600
Flags: W
HStem: -60 41<117 475> 499 41<227 585>
LayerCount: 2
Fore
SplineSet
117 -19 m 1
 475 -19 l 1
 585 499 l 1
 227 499 l 1
 117 -19 l 1
195 540 m 1
 635 540 l 1
 507 -60 l 1
 67 -60 l 1
 195 540 l 1
EndSplineSet
Validated: 1
EndChar

StartChar: quoteleft
Encoding: 8216 8216 254
Width: 600
Flags: W
HStem: 343 261<501.5 517.5>
LayerCount: 2
Fore
SplineSet
522 604 m 1
 544 379 l 1
 544 376 l 2
 544 358 527 343 508 343 c 0
 495 343 489 348 482 365 c 2
 388 604 l 1
 522 604 l 1
EndSplineSet
EndChar

StartChar: quotedblleft
Encoding: 8220 8220 255
Width: 600
Flags: W
HStem: 343 261<326.5 342.5 543.5 559.5>
LayerCount: 2
Fore
SplineSet
564 604 m 1
 586 379 l 1
 586 376 l 2
 586 358 569 343 550 343 c 0
 537 343 530 349 524 365 c 2
 438 604 l 1
 564 604 l 1
347 604 m 1
 369 379 l 1
 369 376 l 2
 369 358 352 343 333 343 c 0
 320 343 313 349 307 365 c 2
 221 604 l 1
 347 604 l 1
EndSplineSet
EndChar
